<?xml version="1.0" encoding="UTF-8"?>
<svg enable-background="new 0 0 761.16 761.16" version="1.1" viewBox="0 0 761.16 761.16" xml:space="preserve" xmlns="http://www.w3.org/2000/svg">
<style type="text/css">
	.st0{fill:#F12E3E;}
	.st1{fill:none;stroke:#F12E3E;stroke-width:7;stroke-miterlimit:10;}
</style>

	
		<path class="st0" d="m381.02 410.32c-25 0-45.34 20.34-45.34 45.34s20.34 45.34 45.34 45.34 45.34-20.34 45.34-45.34-20.34-45.34-45.34-45.34zm0 63.39c-9.95 0-18.05-8.1-18.05-18.05s8.1-18.05 18.05-18.05 18.05 8.1 18.05 18.05-8.1 18.05-18.05 18.05z"/>
		<path class="st0" d="m476.43 297.41c-4.93-1.9-9.71-3.77-14.34-5.61-7.91-68.67-57.56-103.75-81.07-121.38 4.38 8.77 6.33 39.36-10.24 73-15.22-13.96-22.03-29.32-21.13-48.77 0 0-120.95 67.34-117.7 164.04-42.46 45.43-33 96.96-33 96.96 5.33 7.64 11.12 14.92 17.34 21.82 0.17 0.19 0.33 0.38 0.5 0.56 3.03 3.34 6.18 6.57 9.42 9.71 1.84 1.79 3.7 3.56 5.59 5.28 5.64 5.13 11.56 9.97 17.71 14.51 25.59 18.87 55.37 32.37 87.7 38.86 10.34 2.07 20.95 3.43 31.76 4.01 3.99 0.21 8.01 0.33 12.05 0.33 17.85 0 35.21-2.11 51.85-6.1 9.15-2.19 18.07-4.95 26.74-8.23 14.93-5.66 29.09-12.88 42.29-21.47 6.08-3.96 11.96-8.21 17.61-12.73 1.49-1.19 2.96-2.41 4.42-3.64 5.52-4.65 10.82-9.57 15.86-14.73 1.85-1.9 3.68-3.82 5.47-5.79 4.79-5.27 9.32-10.78 13.59-16.5 1.45-1.94 2.86-3.9 4.25-5.88-0.01 0 2.89-123.71-86.67-158.25zm-56.53-48.74c0.31 0.54 0.63 1.08 0.93 1.63 5.05 9.14 8.85 18.86 11.36 29.06 1.51 6.11 2.56 12.4 3.14 18.83 0.37 4.06 0.54 8.21 0.54 12.43 0.01 17.01-2.91 35.37-8.73 54.78-0.46-0.1-0.92-0.2-1.38-0.29-9.15-1.88-18.5-3.2-28.02-3.91-5.52-0.41-11.1-0.62-16.73-0.62-0.9 0-1.8 0.01-2.7 0.02 20.51-21.19 42.34-56.79 41.59-111.93zm-80.03 1.34c4.55 5.91 9.99 11.54 16.32 16.91-6.06 7.94-13.32 15.82-22.01 23.38-2.15-18.16 2.05-32.13 5.69-40.29zm-31.6 10.3c-2.57 13.04-3.16 29.28 1.51 47.88-7.26 4.49-15.18 8.77-23.84 12.77-8.99 4.15-17.06 8.61-24.33 13.28 6.97-29.64 27.84-55.59 46.66-73.93zm-80.54 161.77c0.72-3.16 1.65-6.47 2.84-9.89 2.15-6.18 4.91-12.07 8.27-17.68 5.54-9.24 12.72-17.71 21.51-25.37 10.2-8.9 22.55-16.71 37.03-23.4 38.78-17.9 64.31-40.69 81.12-63.02 5.53-7.34 10.1-14.62 13.9-21.67-1.8 32.55-13.26 59.75-34.24 81.13-16.09 16.41-33.55 24.69-41.01 27.73-17.7 5.31-34.47 12.78-50 22.09-7.96 4.77-15.59 10.02-22.85 15.72-1.32 1.03-2.62 2.07-3.91 3.14-4.37 3.58-8.58 7.33-12.66 11.22zm58.95 45.32c1.73 14.04 6.51 27.13 13.67 38.59-21.18-9.66-40.31-22.93-56.9-39.52-3.49-3.49-6.83-7.09-10.02-10.8 3.19-3.71 6.53-7.31 10.02-10.8 4.72-4.72 9.64-9.15 14.76-13.33 7.08-5.77 14.52-11.03 22.31-15.73 6.39-3.86 13-7.35 19.83-10.47-4.41 7.06-7.92 14.74-10.37 22.88-2.62 8.69-4.04 17.9-4.04 27.45 0 3.96 0.26 7.88 0.74 11.73zm143.16 35.22c-12.34 12.82-29.65 20.82-48.81 20.82-10.02 0-19.54-2.2-28.11-6.13-22.94-10.5-39.04-33.42-39.64-60.12-0.01-0.52-0.04-1.03-0.04-1.55 0-37.38 30.41-67.79 67.79-67.79 17.02 0 32.58 6.32 44.5 16.72 14.26 12.44 23.29 30.71 23.29 51.07-0.01 18.24-7.25 34.79-18.98 46.98zm23.61-129.92c2.22-7.45 4.01-14.64 5.43-21.6 1.63 1.68 3.28 3.57 4.84 5.68 5.32 7.17 8.44 15.14 9.39 23.8-6.4-2.92-12.95-5.56-19.66-7.88zm65.15 93.76c-2.82 2.82-5.73 5.54-8.69 8.17-6.9 6.11-14.18 11.71-21.82 16.75-8.38 5.53-17.19 10.41-26.39 14.6 6.84-10.94 11.52-23.37 13.43-36.7 0.64-4.45 0.97-9 0.97-13.63 0-18.48-5.28-35.73-14.4-50.33 3.62 1.65 7.17 3.41 10.67 5.27 16.97 9.02 32.47 20.49 46.23 34.25 3.49 3.49 6.83 7.09 10.02 10.8-3.2 3.73-6.53 7.33-10.02 10.82zm-18.35-71.11c2.74-25.51-6.38-44.15-15.47-55.97-5.07-6.59-10.54-11.64-15.2-15.29 26.93 11.53 46.17 35.69 57.21 71.89 2.61 8.56 4.47 16.9 5.79 24.49-9.96-9.33-20.78-17.74-32.33-25.12z"/>
	
	
		<path class="st0" d="m109.72 457.29 4.23 12.45c3.36 9.89-0.6 18.9-10.11 22.13-9.51 3.24-18.1-1.5-21.46-11.4l-4.23-12.45 31.57-10.73zm-21.42 21.18c2.12 6.25 7.86 8.36 13.21 6.54 5.58-1.9 8.73-6.77 6.53-13.26l-1.95-5.73-19.74 6.71 1.95 5.74z"/>
		<path class="st0" d="m125.72 499.76 10.86 20.95-5.42 2.81-7.59-14.65-6.44 3.34 7.43 14.34-5.42 2.81-7.43-14.34-6.88 3.57 7.59 14.65-5.46 2.83-10.86-20.95 29.62-15.36z"/>
		<path class="st0" d="m126.54 548.46c-0.63 3.34-0.19 7.5 2.48 11.25 2.26 3.18 4.87 3.66 6.42 2.55 2.04-1.45 1.05-4.3-0.45-7.96-2.14-5.17-4.97-11.74 1.1-16.06 4.52-3.22 10.97-1.91 15.52 4.49 3.07 4.32 4.32 8.83 3.74 13.29l-6.53-0.21c0.47-3.65-0.68-7.25-2.56-9.9-1.85-2.61-3.98-3.18-5.61-2.02-1.83 1.3-0.78 3.99 0.72 7.65 2.17 5.21 4.88 11.87-1.15 16.16-4.97 3.54-11.24 2.66-16.46-4.68-3.71-5.22-4.62-10.21-3.88-14.61l6.66 0.05z"/>
		<path class="st0" d="m168.93 565.54 4.74 5.29-24.82 22.27-4.74-5.29 24.82-22.27z"/>
		<path class="st0" d="m197.51 593.11c5.2 4.53 6.28 9.91 5.61 14.57l-6.55-1.46c0.37-2.79-0.56-6.06-3.2-8.36-4.56-3.97-10.93-3.36-15.07 1.39s-3.87 11.15 0.69 15.12c2.3 2 5.16 2.83 7.1 2.81l2.66-3.05-6.71-5.84 4.01-4.6 11.99 10.44-8.37 9.62c-5.06 0.63-10.28-0.6-14.85-4.58-7.35-6.4-8.92-16.79-2.02-24.7 6.93-7.96 17.36-7.76 24.71-1.36z"/>
		<path class="st0" d="m220.25 624.79-11.81 19.04-6.03-3.74 17.58-28.34 6.2 3.85 1.75 26.5 11.38-18.36 6.03 3.74-17.58 28.34-5.82-3.61-1.7-27.42z"/>
		<path class="st0" d="m275.52 666.43c1.46 3.06 4.29 6.15 8.66 7.6 3.7 1.22 6.09 0.06 6.68-1.74 0.78-2.37-1.7-4.09-5.08-6.15-4.78-2.9-10.96-6.51-8.63-13.59 1.74-5.27 7.71-8.04 15.16-5.58 5.03 1.66 8.71 4.56 10.89 8.49l-5.38 3.7c-1.78-3.22-4.84-5.44-7.93-6.46-3.04-1-5.09-0.21-5.72 1.69-0.71 2.14 1.73 3.68 5.11 5.74 4.83 2.91 10.96 6.67 8.64 13.7-1.91 5.79-7.49 8.8-16.03 5.98-6.08-2.01-9.77-5.49-11.78-9.47l5.41-3.91z"/>
		<path class="st0" d="m325.44 662.62-9.59-1.74 1.12-6.15 26.17 4.75-1.12 6.15-9.54-1.73-4.84 26.66-7.03-1.28 4.83-26.66z"/>
		<path class="st0" d="m357.12 661.06 7.2 0.22-0.59 19.79c-0.14 4.65 2.31 7.92 7.51 8.08 5.1 0.15 7.74-2.97 7.88-7.62l0.59-19.79 7.2 0.21-0.6 19.99c-0.25 8.29-5.17 13.8-15.26 13.5-10.19-0.3-14.77-6.14-14.53-14.34l0.6-20.04z"/>
		<path class="st0" d="m402.89 661.14 13.04-1.71c10.36-1.36 18.41 4.3 19.72 14.26 1.3 9.96-5.03 17.45-15.39 18.8l-13.04 1.71-4.33-33.06zm16.55 25.16c6.54-0.86 9.75-6.07 9.01-11.67-0.77-5.85-4.92-9.89-11.72-9.01l-6 0.79 2.7 20.67 6.01-0.78z"/>
		<path class="st0" d="m448.02 653.51 6.87-1.79 8.39 32.28-6.87 1.79-8.39-32.28z"/>
		<path class="st0" d="m485.24 640.9c9.37-3.77 18.88 0.16 22.63 9.49 3.75 9.32-0.38 18.75-9.75 22.52-9.32 3.75-18.83-0.18-22.59-9.5-3.74-9.33 0.39-18.76 9.71-22.51zm2.35 5.84c-5.71 2.3-7.61 8.13-5.28 13.93 2.32 5.75 7.75 8.68 13.46 6.39 5.71-2.3 7.64-8.2 5.33-13.95-2.33-5.8-7.8-8.66-13.51-6.37z"/>
		<path class="st0" d="m522.57 645.17 32.79-20.46 2.86 4.58-32.79 20.46-2.86-4.58z"/>
		<path class="st0" d="m556.58 599.93 5.38-4.63 17.69 20.53 10.68-9.2 4.08 4.73-16.06 13.84-21.77-25.27z"/>
		<path class="st0" d="m617.91 578.05-9.81 11.22 2.95 5.37-5.13 5.87-16.62-31.67 5.86-6.7 33.57 12.28-5.1 5.83-5.72-2.2zm-13.18 5.74 7.27-8.32-15.14-5.93 7.87 14.25z"/>
		<path class="st0" d="m642.07 563.37c0.2-1.8-0.45-4.49-1.67-5.8-0.04 0.15-0.21 0.58-0.41 0.87-1.07 1.57-3.16 1.96-4.93 0.75-1.82-1.24-2.29-3.74-1.1-5.48 1.33-1.94 4.07-2.67 6.75-0.84 3.1 2.12 4.67 5.74 4.77 9.5l-3.41 1z"/>
		<path class="st0" d="m637.68 531.66c-9.09-4.74-11.72-14.84-7.21-23.49 3.51-6.74 9.02-8.66 13.79-8.83l-0.16 6.8c-3.04-0.01-6.33 1.66-8.04 4.94-2.68 5.14-0.59 11.19 5 14.1s11.74 1.16 14.42-3.99c1.71-3.28 1.23-6.91-0.56-9.42l5.43-4.05c2.57 4.05 4.22 9.64 0.71 16.38-4.5 8.65-14.29 12.29-23.38 7.56z"/>
		<path class="st0" d="m675.5 472.17-4.76 14.12 4.78 3.83-2.49 7.39-27.48-22.88 2.84-8.43 35.71-1.52-2.48 7.34-6.12 0.15zm-9.98 10.36 3.53-10.47-16.26 0.32 12.73 10.15z"/>
	
	
		
			<path class="st0" d="m67.14 354.05 0.81-7.05 26.92 3.09 1.61-14.01 6.21 0.71-2.42 21.06-33.13-3.8z"/>
			<path class="st0" d="m73.01 314.13 5.79-22.88 5.91 1.5-4.05 16 7.03 1.78 3.96-15.66 5.92 1.5-3.96 15.66 7.51 1.9 4.05-16 5.96 1.51-5.79 22.88-32.33-8.19z"/>
			<path class="st0" d="m106.82 271.2-23.12 4.34 3.1-7.49 15.56-2.55-9.25-12.7 3.1-7.48 13.33 19.31 12.61 5.22-2.71 6.56-12.62-5.21z"/>
			<path class="st0" d="m102.53 232.69 4.2-6.93 26.73 5.38-17.17-21.16 4.2-6.93 21.86 28.27-4.61 7.61-35.21-6.24z"/>
			<path class="st0" d="m164.36 192-9.5 11.47 3.09 5.28-4.97 6.01-17.45-31.2 5.68-6.85 33.88 11.38-4.94 5.97-5.79-2.06zm-13.03 6.09 7.05-8.51-15.29-5.52 8.24 14.03z"/>
			<path class="st0" d="m178.34 170.89c3.39 0.25 7.47-0.67 10.89-3.75 2.9-2.61 3.07-5.25 1.8-6.67-1.67-1.86-4.4-0.55-7.86 1.36-4.89 2.72-11.09 6.29-16.08 0.75-3.71-4.12-3.16-10.68 2.68-15.93 3.94-3.55 8.28-5.3 12.77-5.24l0.54 6.51c-3.68-0.05-7.12 1.5-9.54 3.68-2.38 2.14-2.7 4.32-1.37 5.8 1.5 1.67 4.05 0.32 7.52-1.59 4.92-2.75 11.23-6.21 16.18-0.71 4.08 4.53 3.93 10.86-2.76 16.88-4.76 4.28-9.61 5.76-14.06 5.53l-0.71-6.62z"/>
			<path class="st0" d="m214.72 137.29-0.44 4.02 5.7 8.52-5.9 3.95-18.54-27.72 5.9-3.95 8.29 12.39 1.52-18.95 7.27-4.87-2.31 20.38 21.6 6.85-7.27 4.87-15.82-5.49z"/>
			<path class="st0" d="m234.49 102.09 6.32-3.23 15.18 29.7-6.32 3.23-15.18-29.7z"/>
			<path class="st0" d="m284.03 80.99 16.92-4.67c6.12-1.69 10.33 1.35 11.51 5.64 1.12 4.05-0.65 7.44-3.51 8.9 3.57-0.41 7.23 2.16 8.35 6.2 1.33 4.82-0.84 9.57-6.96 11.25l-17.45 4.81-8.86-32.13zm18.98 8.67c2.31-0.64 3.35-2.53 2.78-4.6-0.54-1.98-2.42-3.12-4.73-2.48l-8.58 2.37 1.95 7.09 8.58-2.38zm3.94 13.33c2.6-0.72 3.73-2.64 3.1-4.95-0.56-2.02-2.48-3.36-5.18-2.62l-8.82 2.43 2.09 7.57 8.81-2.43z"/>
			<path class="st0" d="m340.47 88.56-15.18-17.97 8.04-1 9.88 12.28 6.49-14.31 8.04-1-10.23 21.12 1.68 13.55-7.05 0.87-1.67-13.54z"/>
			<path class="st0" d="m401.41 66.67 23.48 2.36-0.61 6.07-16.42-1.65-0.72 7.21 16.07 1.61-0.61 6.07-16.07-1.61-1.39 13.83-7.06-0.71 3.33-33.18z"/>
			<path class="st0" d="m450.76 96.04-5.05-1.25-2.87 11.6-6.89-1.71 8.01-32.38 15.14 3.75c6.75 1.67 9.78 7.11 8.29 13.13-1.42 5.73-5.76 7.9-9.46 7.86l4.23 14.13-7.91-1.96-3.49-13.17zm5.86-14.32-7.23-1.79-2.21 8.93 7.23 1.79c2.77 0.68 5.29-0.55 5.96-3.26 0.67-2.72-0.98-4.98-3.75-5.67z"/>
			<path class="st0" d="m497.88 118.68-13.75-5.74-4.15 4.5-7.2-3.01 24.76-25.8 8.21 3.43-1 35.73-7.15-2.99 0.28-6.12zm-9.63-10.69 10.2 4.26 0.82-16.24-11.02 11.98z"/>
			<path class="st0" d="m533.6 118.37-11.81 19.04-6.03-3.74 17.58-28.34 6.2 3.85 1.75 26.5 11.38-18.36 6.03 3.74-17.58 28.34-5.82-3.61-1.7-27.42z"/>
			<path class="st0" d="m561.38 155.62c1.71 1.38 2 3.98 0.62 5.69s-3.98 2-5.69 0.62-2-3.98-0.62-5.69c1.38-1.72 3.98-2 5.69-0.62z"/>
			<path class="st0" d="m613.74 169.44 4.6 5.41-20.63 17.57 9.14 10.74-4.76 4.05-13.74-16.14 25.39-21.63z"/>
			<path class="st0" d="m638.91 200.99 12.78 19.83-5.13 3.3-8.94-13.87-6.09 3.93 8.75 13.57-5.13 3.3-8.75-13.57-6.51 4.2 8.94 13.87-5.17 3.33-12.78-19.83 28.03-18.06z"/>
			<path class="st0" d="m647.27 254.98 12.58-19.87 3.37 7.37-8.74 13.12 15.59 1.89 3.37 7.37-23.22-3.41-12.41 5.67-2.95-6.46 12.41-5.68z"/>
			<path class="st0" d="m678.4 278.09 2.21 7.79-22.16 15.88 27.18 1.87 2.21 7.79-35.59-3.29-2.42-8.56 28.57-21.48z"/>
			<path class="st0" d="m665.98 351.03-1.9-14.78-5.97-1.35-1-7.74 34.72 8.54 1.13 8.83-31.44 17-0.99-7.69 5.45-2.81zm4.44-13.67 1.41 10.96 14.47-7.41-15.88-3.55z"/>
		
	

<circle class="st1" cx="380.58" cy="380.58" r="377.08"/>
</svg>
