<?xml version="1.0" encoding="UTF-8"?>
<svg enable-background="new 0 0 761.16 761.16" version="1.1" viewBox="0 0 761.16 761.16" xml:space="preserve" xmlns="http://www.w3.org/2000/svg">
<style type="text/css">
	.st0{fill:#F12E3E;}
	.st1{fill:none;stroke:#F12E3E;stroke-width:7;stroke-miterlimit:10;}
</style>

	
		<path class="st0" d="m360.22 311.85h4.6l-11.85 35.35h-4.6l11.85-35.35z"/>
		<path class="st0" d="m388.67 311.85h4.6l-11.85 35.35h-4.6l11.85-35.35z"/>
		<path class="st0" d="m408.56 312.85h13.15c10.45 0 17.7 6.65 17.7 16.7s-7.25 16.65-17.7 16.65h-13.15v-33.35zm13.16 27.1c6.6 0 10.45-4.75 10.45-10.4 0-5.9-3.6-10.45-10.45-10.45h-6.05v20.85h6.05z"/>
		<path class="st0" d="m456.46 312.85h23.6v6.1h-16.5v7.25h16.15v6.1h-16.15v7.75h16.5v6.15h-23.6v-33.35z"/>
		<path class="st0" d="m499.21 336.1c2.35 2.45 6 4.5 10.6 4.5 3.9 0 5.8-1.85 5.8-3.75 0-2.5-2.9-3.35-6.75-4.25-5.45-1.25-12.45-2.75-12.45-10.2 0-5.55 4.8-10.05 12.65-10.05 5.3 0 9.7 1.6 13 4.65l-3.95 5.2c-2.7-2.5-6.3-3.65-9.55-3.65-3.2 0-4.9 1.4-4.9 3.4 0 2.25 2.8 2.95 6.65 3.85 5.5 1.25 12.5 2.9 12.5 10.3 0 6.1-4.35 10.7-13.35 10.7-6.4 0-11-2.15-14.15-5.3l3.9-5.4z"/>
		<path class="st0" d="m539.61 312.85h7.1v33.35h-7.1v-33.35z"/>
		<path class="st0" d="m581.46 312.3c6.9 0 11.25 3.35 13.8 7.3l-5.9 3.2c-1.55-2.35-4.4-4.2-7.9-4.2-6.05 0-10.45 4.65-10.45 10.95s4.4 10.95 10.45 10.95c3.05 0 5.75-1.25 7.2-2.55v-4.05h-8.9v-6.1h15.9v12.75c-3.4 3.8-8.15 6.3-14.2 6.3-9.75 0-17.75-6.8-17.75-17.3 0-10.55 8-17.25 17.75-17.25z"/>
		<path class="st0" d="m620.41 323.8v22.4h-7.1v-33.35h7.3l15.45 21.6v-21.6h7.1v33.35h-6.85l-15.9-22.4z"/>
	
	
		<path class="st0" d="m353.27 429.65c2.35 2.45 6 4.5 10.6 4.5 3.9 0 5.8-1.85 5.8-3.75 0-2.5-2.9-3.35-6.75-4.25-5.45-1.25-12.45-2.75-12.45-10.2 0-5.55 4.8-10.05 12.65-10.05 5.3 0 9.7 1.6 13 4.65l-3.95 5.2c-2.7-2.5-6.3-3.65-9.55-3.65-3.2 0-4.9 1.4-4.9 3.4 0 2.25 2.8 2.95 6.65 3.85 5.5 1.25 12.5 2.9 12.5 10.3 0 6.1-4.35 10.7-13.35 10.7-6.4 0-11-2.15-14.15-5.3l3.9-5.4z"/>
		<path class="st0" d="m401.02 412.65h-9.75v-6.25h26.6v6.25h-9.7v27.1h-7.15v-27.1z"/>
		<path class="st0" d="m434.41 406.4h7.2v19.8c0 4.65 2.55 7.85 7.75 7.85 5.1 0 7.65-3.2 7.65-7.85v-19.8h7.2v20c0 8.3-4.75 13.95-14.85 13.95-10.2 0-14.95-5.7-14.95-13.9v-20.05z"/>
		<path class="st0" d="m482.81 406.4h13.15c10.45 0 17.7 6.65 17.7 16.7s-7.25 16.65-17.7 16.65h-13.15v-33.35zm13.16 27.1c6.6 0 10.45-4.75 10.45-10.4 0-5.9-3.6-10.45-10.45-10.45h-6.05v20.85h6.05z"/>
		<path class="st0" d="M530.71,406.4h7.1v33.35h-7.1V406.4z"/>
		<path class="st0" d="m572.21 405.85c10.1 0 17.45 7.2 17.45 17.25s-7.35 17.25-17.45 17.25c-10.05 0-17.4-7.2-17.4-17.25s7.35-17.25 17.4-17.25zm0 6.3c-6.15 0-10.1 4.7-10.1 10.95 0 6.2 3.95 10.95 10.1 10.95s10.15-4.75 10.15-10.95c0.01-6.25-4-10.95-10.15-10.95z"/>
	


	
		<path class="st0" d="m547.54 168.6-5.73-4.2 16.01-21.87-11.38-8.33 3.69-5.04 17.11 12.53-19.7 26.91z"/>
		<path class="st0" d="m517.51 147.95-20.81-11.13 2.88-5.38 14.55 7.78 3.42-6.39-14.24-7.62 2.88-5.38 14.24 7.62 3.66-6.83-14.55-7.79 2.9-5.42 20.81 11.13-15.74 29.41z"/>
		<path class="st0" d="m480.09 108.76 5.57 22.85-7.64-2.69-3.37-15.39-12.19 9.91-7.64-2.69 18.57-14.34 4.54-12.87 6.7 2.36-4.54 12.86z"/>
		<path class="st0" d="m445.51 118.2-7.97-1.43-4.59-26.88-13.57 23.63-7.97-1.43 18.52-30.57 8.76 1.57 6.82 35.11z"/>
		<path class="st0" d="m379.87 83.22 14.9 0.33 2.23-5.7 7.8 0.17-13.64 33.05-8.9-0.2-12.1-33.63 7.75 0.17 1.96 5.81zm12.86 6.44-11.05-0.25 5.16 15.42 5.89-15.17z"/>
		<path class="st0" d="m351.87 88.88c-2.65-2.12-6.54-3.68-11.1-3.07-3.87 0.51-5.51 2.59-5.26 4.48 0.33 2.48 3.31 2.94 7.25 3.33 5.57 0.53 12.7 1.1 13.68 8.48 0.73 5.5-3.44 10.59-11.23 11.62-5.25 0.69-9.83-0.32-13.5-2.91l3.24-5.67c3 2.13 6.72 2.79 9.95 2.37 3.17-0.42 4.68-2.03 4.41-4.01-0.29-2.23-3.16-2.56-7.1-2.95-5.62-0.52-12.77-1.24-13.74-8.58-0.8-6.05 2.91-11.18 11.84-12.36 6.35-0.84 11.19 0.69 14.72 3.4l-3.16 5.87z"/>
		<path class="st0" d="m301.94 101.69 1.63-3.7-2.88-9.84 6.81-1.99 9.35 32.01-6.81 1.99-4.18-14.3-7.15 17.61-8.4 2.45 8.33-18.74-18.54-13.01 8.4-2.45 13.44 9.97z"/>
		<path class="st0" d="m276.78 131.58-6.52 2.82-13.25-30.6 6.52-2.82 13.25 30.6z"/>
		<path class="st0" d="m234.26 153.63-14.26 10.23c-5.16 3.7-10.16 2.31-12.76-1.31-2.45-3.41-1.97-7.2 0.21-9.57-3.21 1.62-7.53 0.48-9.98-2.93-2.92-4.06-2.53-9.26 2.63-12.97l14.7-10.56 19.46 27.11zm-29.12-12.7c-2.19 1.57-2.59 3.77-1.19 5.72 1.22 1.71 3.49 2.29 5.77 0.66l7.43-5.34-4.58-6.38-7.43 5.34zm8.31 11.15c-1.95 1.4-2.26 3.53-1.01 5.28 1.2 1.67 3.35 2.09 5.3 0.69l7.23-5.19-4.29-5.97-7.23 5.19z"/>
		<path class="st0" d="m180.59 171.42 22.96 5.08-5.78 5.67-15.3-3.76 3.52 15.31-5.78 5.67-4.68-22.99-9.55-9.75 5.07-4.97 9.54 9.74z"/>
		<path class="st0" d="m157.45 228.69-12.5 20.02-5.18-3.23 8.74-14-6.15-3.84-8.55 13.7-5.18-3.23 8.55-13.7-11.79-7.36 3.76-6.02 28.3 17.66z"/>
		<path class="st0" d="m113.4 264.92 2.06-4.78-10.97-4.73 2.81-6.52 30.62 13.21-6.18 14.33c-2.75 6.38-8.61 8.48-14.31 6.03-5.42-2.34-6.84-6.98-6.2-10.62l-14.63 1.86 3.23-7.48 13.57-1.3zm13.16 8.12 2.95-6.84-8.45-3.64-2.95 6.84c-1.13 2.62-0.33 5.3 2.24 6.41 2.58 1.11 5.08-0.15 6.21-2.77z"/>
		<path class="st0" d="m90.41 315.26 3.62-14.45-5.07-3.44 1.9-7.56 29.21 20.62-2.16 8.63-35.47 4.35 1.89-7.52 6.08-0.63zm9.13-11.11-2.69 10.72 16.18-1.61-13.49-9.11z"/>
		<path class="st0" d="m101.42 350.74-22.33-1.73 0.55-7.08 33.25 2.58-0.56 7.28-22.73 13.73 21.54 1.67-0.55 7.08-33.25-2.58 0.53-6.83 23.55-14.12z"/>
		<path class="st0" d="m93.98 390.79c10.21-0.9 17.87 6.2 18.73 15.91 0.67 7.57-2.94 12.16-6.87 14.86l-3.53-5.81c2.57-1.63 4.44-4.81 4.12-8.5-0.51-5.78-5.53-9.75-11.81-9.19s-10.52 5.35-10.01 11.13c0.33 3.69 2.68 6.49 5.55 7.64l-2.4 6.34c-4.35-2.03-8.75-5.85-9.42-13.42-0.86-9.72 5.43-18.05 15.64-18.96z"/>
		<path class="st0" d="m116.44 435.34 1.53 6.93-32.57 7.17-1.53-6.93 32.57-7.17z"/>
		<path class="st0" d="m100.78 468.1c-1.53 3.03-2.26 7.15-0.74 11.49 1.29 3.68 3.67 4.86 5.46 4.23 2.36-0.83 2.2-3.85 1.78-7.78-0.62-5.56-1.53-12.66 5.5-15.13 5.24-1.84 11.07 1.2 13.67 8.61 1.76 5 1.7 9.68-0.08 13.81l-6.21-2.01c1.47-3.38 1.36-7.15 0.28-10.22-1.06-3.02-2.94-4.16-4.83-3.5-2.12 0.75-1.86 3.62-1.43 7.55 0.64 5.6 1.4 12.76-5.58 15.21-5.76 2.02-11.54-0.56-14.52-9.05-2.12-6.04-1.61-11.09 0.32-15.11l6.38 1.9z"/>
		<path class="st0" d="m121.1 502.88c9.02-4.87 18.86-1.38 23.5 7.2 3.61 6.69 2.11 12.33-0.42 16.37l-5.54-3.94c1.71-2.52 2.18-6.18 0.42-9.43-2.76-5.1-8.94-6.76-14.48-3.77s-7.54 9.08-4.78 14.18c1.76 3.25 5.03 4.9 8.12 4.82l0.3 6.77c-4.79-0.14-10.35-1.91-13.97-8.59-4.64-8.59-2.17-18.74 6.85-23.61z"/>
		<path class="st0" d="m168.9 546.77c6.24 7.94 5.13 18.17-2.77 24.38s-18.1 4.89-24.35-3.05c-6.21-7.9-5.1-18.13 2.8-24.34 7.9-6.22 18.11-4.89 24.32 3.01zm-4.95 3.89c-3.8-4.83-9.94-5.03-14.85-1.17-4.87 3.83-6.17 9.88-2.36 14.71 3.8 4.83 10.01 5.04 14.88 1.21 4.91-3.86 6.13-9.91 2.33-14.75z"/>
		<path class="st0" d="m207.51 587.62 5.61 4.36-16.63 21.4 11.13 8.65-3.84 4.93-16.74-13.01 20.47-26.33z"/>
		<path class="st0" d="m236.92 609.12 20.48 11.73-3.03 5.29-14.32-8.2-3.6 6.29 14.01 8.03-3.03 5.29-14.01-8.03-3.85 6.72 14.32 8.2-3.06 5.34-20.48-11.73 16.57-28.93z"/>
		<path class="st0" d="m273.19 649.39-4.9-23 7.56 2.92 2.92 15.49 12.47-9.55 7.56 2.91-18.98 13.79-4.91 12.73-6.62-2.55 4.9-12.74z"/>
		<path class="st0" d="m308.03 640.97 7.93 1.66 3.8 27 14.26-23.22 7.93 1.66-19.41 30.01-8.71-1.82-5.8-35.29z"/>
		<path class="st0" d="m372.66 677.83-14.88-0.76-2.39 5.64-7.79-0.4 14.58-32.65 8.89 0.45 11.14 33.97-7.74-0.39-1.81-5.86zm-12.67-6.8 11.04 0.56-4.71-15.56-6.33 15z"/>
		<path class="st0" d="m422.72 666.39 37.78-8.15 1.14 5.28-37.78 8.15-1.14-5.28z"/>
		<path class="st0" d="m492.6 626.14 6.35-3.18 12.16 24.22 12.6-6.33 2.8 5.59-18.95 9.51-14.96-29.81z"/>
		<path class="st0" d="m557.92 619.27-12.17 8.59 1.6 5.91-6.37 4.5-8.7-34.69 7.27-5.13 29.73 19.83-6.33 4.47-5.03-3.48zm-14.16 2.47 9.03-6.37-13.32-9.33 4.29 15.7z"/>
	

<circle class="st1" cx="380.58" cy="380.58" r="377.08"/>
</svg>
