<?xml version="1.0" encoding="UTF-8"?>
<svg enable-background="new 0 0 1132.53 301.99" version="1.1" viewBox="0 0 1132.5 301.99" xml:space="preserve" xmlns="http://www.w3.org/2000/svg">

	
		<path d="m116.75 153.07c-15.95 0-28.93 12.98-28.93 28.93s12.98 28.93 28.93 28.93 28.93-12.98 28.93-28.93-12.98-28.93-28.93-28.93zm0 40.45c-6.35 0-11.52-5.17-11.52-11.52s5.17-11.52 11.52-11.52 11.52 5.17 11.52 11.52c-0.01 6.35-5.17 11.52-11.52 11.52z"/>
		<path d="m177.62 81.03c-3.15-1.21-6.19-2.41-9.15-3.58-5.05-43.82-36.73-66.2-51.73-77.45 2.8 5.59 4.04 25.12-6.53 46.58-9.71-8.91-14.06-18.71-13.48-31.12 0 0-77.17 42.97-75.1 104.67-27.09 28.99-21.06 61.87-21.06 61.87 3.4 4.87 7.09 9.52 11.06 13.92 0.11 0.12 0.21 0.24 0.32 0.36 1.94 2.13 3.94 4.19 6.01 6.2 1.17 1.14 2.36 2.27 3.57 3.37 3.6 3.28 7.38 6.36 11.3 9.26 16.33 12.04 35.33 20.66 55.96 24.79 6.6 1.32 13.37 2.19 20.26 2.56 2.55 0.14 5.11 0.21 7.69 0.21 11.39 0 22.47-1.35 33.08-3.89 5.84-1.4 11.53-3.16 17.06-5.25 9.53-3.61 18.56-8.22 26.98-13.7 3.88-2.53 7.63-5.24 11.24-8.12 0.95-0.76 1.89-1.54 2.82-2.32 3.52-2.97 6.9-6.11 10.12-9.4 1.18-1.21 2.35-2.44 3.49-3.69 3.06-3.36 5.95-6.88 8.67-10.53 0.92-1.24 1.83-2.49 2.71-3.76 0.01-0.01 1.86-78.94-55.29-100.98zm-36.06-31.1c0.2 0.35 0.4 0.69 0.59 1.04 3.22 5.83 5.65 12.03 7.25 18.54 0.96 3.9 1.63 7.91 2 12.02 0.23 2.59 0.35 5.24 0.35 7.93 0 10.85-1.86 22.57-5.57 34.95-0.29-0.06-0.59-0.13-0.88-0.19-5.84-1.2-11.81-2.04-17.88-2.49-3.52-0.26-7.08-0.4-10.67-0.4-0.58 0-1.15 0.01-1.72 0.01 13.07-13.51 27.01-36.23 26.53-71.41zm-51.07 0.85c2.9 3.77 6.37 7.36 10.41 10.79-3.86 5.07-8.5 10.09-14.04 14.92-1.38-11.58 1.3-20.5 3.63-25.71zm-20.16 6.58c-1.64 8.32-2.01 18.68 0.97 30.55-4.63 2.87-9.69 5.6-15.21 8.15-5.74 2.65-10.88 5.49-15.52 8.47 4.43-18.91 17.75-35.47 29.76-47.17zm-51.39 103.22c0.46-2.02 1.05-4.13 1.81-6.31 1.37-3.94 3.13-7.7 5.28-11.28 3.53-5.9 8.12-11.3 13.72-16.19 6.51-5.68 14.39-10.66 23.63-14.93 24.75-11.42 41.04-25.97 51.76-40.21 3.53-4.68 6.44-9.33 8.87-13.83-1.15 20.77-8.46 38.12-21.85 51.77-10.27 10.47-21.41 15.76-26.17 17.7-11.29 3.39-21.99 8.15-31.91 14.1-5.08 3.04-9.95 6.4-14.58 10.03-0.84 0.66-1.67 1.32-2.5 2-2.78 2.28-5.46 4.67-8.06 7.15zm37.61 28.92c1.1 8.96 4.15 17.31 8.72 24.62-13.52-6.16-25.72-14.63-36.31-25.22-2.23-2.23-4.36-4.53-6.39-6.89 2.04-2.37 4.17-4.67 6.39-6.89 3.01-3.01 6.15-5.84 9.42-8.5 4.52-3.68 9.27-7.04 14.24-10.04 4.08-2.46 8.3-4.69 12.66-6.68-2.82 4.5-5.05 9.41-6.62 14.6-1.67 5.55-2.58 11.42-2.58 17.51 0 2.53 0.16 5.03 0.47 7.49zm91.34 22.47c-7.87 8.18-18.92 13.29-31.15 13.29-6.4 0-12.47-1.41-17.93-3.91-14.64-6.7-24.91-21.33-25.3-38.36-0.01-0.33-0.03-0.66-0.03-0.99 0-23.85 19.4-43.25 43.25-43.25 10.86 0 20.79 4.03 28.39 10.67 9.1 7.94 14.86 19.6 14.86 32.59 0.02 11.62-4.6 22.18-12.09 29.96zm15.07-82.9c1.41-4.75 2.56-9.34 3.46-13.78 1.04 1.07 2.09 2.28 3.09 3.63 3.39 4.58 5.39 9.66 5.99 15.19-4.07-1.87-8.26-3.56-12.54-5.04zm41.57 59.83c-1.8 1.8-3.65 3.54-5.55 5.22-4.4 3.9-9.05 7.47-13.92 10.69-5.35 3.53-10.97 6.64-16.84 9.32 4.36-6.98 7.35-14.92 8.57-23.42 0.41-2.84 0.62-5.74 0.62-8.69 0-11.79-3.37-22.8-9.19-32.11 2.31 1.05 4.58 2.18 6.81 3.37 10.83 5.76 20.72 13.08 29.5 21.85 2.23 2.23 4.36 4.53 6.39 6.89-2.03 2.35-4.16 4.65-6.39 6.88zm-11.71-45.38c1.75-16.28-4.07-28.17-9.87-35.71-3.24-4.21-6.73-7.43-9.7-9.76 17.18 7.36 29.46 22.77 36.51 45.87 1.67 5.46 2.85 10.78 3.69 15.62-6.35-5.94-13.26-11.31-20.63-16.02z"/>
	
	
		<path d="m419.16 211.1c15.5 3.45 38.47-2.3 45.64-15.78l4.88 2.58c-4.59 14.92-21.53 37.6-59.99 37.6-37.6 0-63.43-34.73-63.43-68.31 0-40.47 27.55-69.46 67.16-69.46 41.62 0 61.14 21.53 61.14 66.31h-91.28c2.3 28.12 16.65 42.76 35.88 47.06zm-35.88-51.95h56.26c0-36.17-11.77-56.55-27.56-56.55-16.93 0.01-28.7 29-28.7 56.55z"/>
		<path d="m592.22 97.73-1 2.6-46.07 121.7-6.78 17.88-9.79 25.73c-7.44 19.51-16.08 27.56-21.51 31.85-5.19 4.32-15.22 6.02-22.1 2.87-10.06-4.6-14.35-16.36-10.06-26.39 4.6-10.07 16.36-14.66 26.42-10.07 5.15 2.32 8.3 6.88 9.76 11.76 1.14 3.46 8.02 1.45 12.62-10.62l9.96-26.91-0.41-0.17 1.14-3.01c-17.95-41.33-62.7-137.24-62.7-137.24h39.15l41.78 89.06 20.03-52.85 12.73-33.62 0.97-2.6h5.86z"/>
		<path d="m720.81 97.72-17.82 44.17-0.14 0.35-17.33 42.82-20.06 50.46h-4.6c-50.81-110.22-63.57-137.79-63.57-137.79h39.39l41.95 89.78 16.25-40.19 0.35-0.9 19.69-48.71h5.89z"/>
		<path d="m824.8 155.15v2.73l-0.35 77.09v0.52h-6.02c-0.28 0.03-0.55 0.03-0.83 0.03 0 0-0.24 0-0.62-0.03h-28.36v-22.41c-4.77 12.24-21.41 22.44-41.33 22.44 0 0-32.99 0-32.99-29.29 0-31.3 24.11-34.17 74.32-46.79v-17.78c0-29.85-16.63-44.79-36.45-34.44-9.17 4.6-10.31 9.48-8.3 9.75 4.29 0.59 8.03 2.59 10.62 6.33 5.15 7.44 3.15 17.5-4.32 22.66-7.47 4.87-17.5 3.15-22.69-4.29-3.42-5.46-3.7-12.34-0.83-17.22s6.6-12.62 22.38-20.96c12.9-6.88 27.84-5.74 27.84-5.74 37.6-0.02 47.93 23.5 47.93 57.4zm-36.17 23.69v-14.22c-28.12 6.29-37.59 19.78-37.59 34.45 0 0 0 18.92 18.67 18.92 9.76 0 16.36-7.75 18.92-14.63v-24.52z"/>
		<path d="m936.03 220s-10.91 15.5-40.18 15.5c-34.73 0-51.95-13.2-51.95-13.2v-36.16h4.88c4.31 11.19 13.49 44.49 47.07 44.49 20.38 0 23.83-25.83 2.01-40.19l-28.99-17.51c-27.85-16.94-35.3-40.19-19.52-60.85 0 0 10.91-14.35 39.61-14.35 33.01 0 47.36 8.61 47.36 8.61v32.15h-4.88c-3.73-10.04-12.91-35.88-42.48-35.88-18.65 0-26.7 22.1-1.72 37.89l28.99 18.08c25.54 15.78 34.15 40.76 19.8 61.42z"/>
		<path d="m1093.2 55.25c0-10.91 8.61-19.52 19.52-19.52s19.81 8.61 19.81 19.52-8.9 19.52-19.81 19.52-19.52-8.62-19.52-19.52zm1.86 180.24v-125.54l35.59-12.23v137.76h-35.59z"/>
		
			<polygon points="298.96 235.49 334.83 235.49 334.83 18.53 298.96 30.76"/>
			<polygon points="956.7 30.76 956.7 235.21 992.57 235.21 992.57 18.53"/>
			<path d="m1066.5 215.49s-0.58 0-44.76-62.37l20.74-22.51 30.61-33.17h-8.82l-38.61 41.88-0.18 0.21c-2.7 3.09-4.68 5.11-4.68 5.11l-28.12 30.47s7.78 11.96 16.75 25.14c20.02 29.85 22.72 35.26 43.36 35.26h42.14v-5.08c-5.1-0.32-18.57-1.18-28.43-14.94z"/>
		
	

</svg>
