<svg enable-background="new 0 0 623.68 649.77" version="1.1" viewBox="0 0 623.68 649.77" xml:space="preserve" xmlns="http://www.w3.org/2000/svg">
	<path d="m312.6 409.87c-42.71 0-77.46 34.75-77.46 77.46s34.75 77.46 77.46 77.46 77.46-34.75 77.46-77.46-34.75-77.46-77.46-77.46zm0 108.29c-17 0-30.83-13.83-30.83-30.83s13.83-30.83 30.83-30.83 30.83 13.83 30.83 30.83-13.83 30.83-30.83 30.83z"/>
	<path d="m475.59 216.96c-8.43-3.25-16.58-6.44-24.49-9.58-13.52-117.33-98.34-177.25-138.5-207.38 7.49 14.98 10.82 67.25-17.49 124.72-26-23.85-37.63-50.09-36.1-83.32 0 0-206.64 115.05-201.09 280.27-72.54 77.61-56.38 165.66-56.38 165.66 9.1 13.05 19 25.5 29.63 37.27 0.29 0.32 0.56 0.65 0.85 0.96 5.18 5.7 10.56 11.22 16.09 16.6 3.14 3.06 6.32 6.08 9.56 9.03 9.64 8.77 19.75 17.03 30.26 24.78 43.72 32.24 94.61 55.31 149.83 66.39 17.67 3.54 35.79 5.85 54.26 6.84 6.82 0.37 13.68 0.57 20.59 0.57 30.5 0 60.16-3.61 88.58-10.42 15.62-3.74 30.87-8.45 45.68-14.07 25.51-9.67 49.71-22.01 72.24-36.69 10.39-6.77 20.44-14.03 30.09-21.75 2.55-2.04 5.06-4.12 7.55-6.22 9.44-7.95 18.48-16.36 27.1-25.17 3.17-3.24 6.29-6.53 9.34-9.88 8.18-9.01 15.93-18.42 23.22-28.18 2.47-3.31 4.89-6.66 7.26-10.05-0.01-0.01 4.94-211.36-148.08-270.38zm-96.57-83.26c0.53 0.93 1.07 1.85 1.59 2.79 8.63 15.61 15.12 32.22 19.42 49.64 2.58 10.45 4.37 21.19 5.36 32.18 0.63 6.93 0.92 14.02 0.93 21.24 0.01 29.06-4.98 60.42-14.91 93.58-0.79-0.17-1.57-0.34-2.35-0.5-15.63-3.2-31.61-5.46-47.88-6.67-9.43-0.7-18.96-1.06-28.58-1.06-1.54 0-3.08 0.02-4.62 0.04 35.02-36.22 72.33-97.04 71.04-191.24zm-136.73 2.27c7.77 10.09 17.06 19.71 27.88 28.89-10.35 13.57-22.76 27.02-37.6 39.95-3.68-31.02 3.49-54.89 9.72-68.84zm-53.98 17.61c-4.39 22.28-5.39 50.03 2.59 81.81-12.4 7.67-25.94 14.98-40.74 21.81-15.36 7.09-29.14 14.7-41.56 22.68 11.88-50.63 47.55-94.98 79.71-126.3zm-137.6 276.38c1.24-5.4 2.82-11.05 4.85-16.89 3.67-10.55 8.39-20.63 14.13-30.21 9.46-15.79 21.74-30.25 36.74-43.34 17.42-15.2 38.52-28.56 63.27-39.97 66.26-30.58 109.88-69.52 138.6-107.67 9.44-12.54 17.25-24.99 23.75-37.03-3.08 55.61-22.65 102.08-58.49 138.62-27.49 28.03-57.31 42.19-70.07 47.39-30.24 9.08-58.89 21.83-85.43 37.74-13.59 8.15-26.63 17.12-39.05 26.86-2.25 1.76-4.48 3.54-6.69 5.36-7.46 6.09-14.65 12.49-21.61 19.14zm100.7 77.43c2.96 23.98 11.12 46.35 23.36 65.92-36.19-16.5-68.86-39.18-97.21-67.53-5.96-5.96-11.66-12.12-17.12-18.46 5.46-6.34 11.16-12.49 17.12-18.46 8.06-8.06 16.47-15.64 25.21-22.77 12.09-9.87 24.81-18.84 38.12-26.88 10.91-6.59 22.21-12.56 33.89-17.88-7.54 12.06-13.52 25.19-17.71 39.09-4.47 14.85-6.9 30.58-6.9 46.89-0.01 6.81 0.43 13.5 1.24 20.08zm244.58 60.18c-21.08 21.9-50.66 35.58-83.4 35.58-17.13 0-33.38-3.77-48.02-10.47-39.2-17.94-66.7-57.1-67.73-102.71-0.02-0.88-0.07-1.75-0.07-2.64 0-63.86 51.95-115.81 115.81-115.81 29.08 0 55.66 10.8 76.02 28.56 24.36 21.25 39.79 52.47 39.79 87.26 0.02 31.12-12.34 59.39-32.4 80.23zm40.35-221.97c3.79-12.73 6.85-25.02 9.27-36.9 2.79 2.87 5.6 6.1 8.28 9.71 9.09 12.26 14.42 25.86 16.04 40.67-10.93-5-22.13-9.52-33.59-13.48zm111.3 160.18c-4.82 4.82-9.78 9.47-14.85 13.96-11.79 10.45-24.22 20-37.27 28.61-14.32 9.45-29.37 17.78-45.08 24.95 11.69-18.7 19.68-39.94 22.95-62.7 1.09-7.6 1.66-15.37 1.66-23.28 0-31.58-9.02-61.04-24.61-85.98 6.18 2.82 12.26 5.83 18.23 9.01 28.99 15.42 55.48 35.01 78.98 58.52 5.96 5.96 11.66 12.12 17.12 18.46-5.46 6.33-11.17 12.49-17.13 18.45zm-31.34-121.49c4.68-43.58-10.9-75.43-26.43-95.62-8.67-11.27-18.01-19.89-25.96-26.13 46.01 19.7 78.89 60.98 97.75 122.82 4.46 14.62 7.63 28.87 9.88 41.83-17.02-15.93-35.51-30.29-55.24-42.9z"/>
</svg>
