<?xml version="1.0" encoding="utf-8"?>
<!-- Generator: Adobe Illustrator 24.1.0, SVG Export Plug-In . SVG Version: 6.00 Build 0)  -->
<svg version="1.1" id="Layer_1" xmlns="http://www.w3.org/2000/svg" xmlns:xlink="http://www.w3.org/1999/xlink" x="0px" y="0px"
	 viewBox="0 0 1132.53 301.99" style="enable-background:new 0 0 1132.53 301.99;" xml:space="preserve">
<style type="text/css">
	.st0{fill:#FFFFFF;}
</style>
<g>
	<g>
		<path class="st0" d="M116.75,153.07c-15.95,0-28.93,12.98-28.93,28.93c0,15.95,12.98,28.93,28.93,28.93
			c15.95,0,28.93-12.98,28.93-28.93C145.68,166.05,132.7,153.07,116.75,153.07z M116.75,193.52c-6.35,0-11.52-5.17-11.52-11.52
			c0-6.35,5.17-11.52,11.52-11.52c6.35,0,11.52,5.17,11.52,11.52C128.26,188.35,123.1,193.52,116.75,193.52z"/>
		<path class="st0" d="M177.62,81.03c-3.15-1.21-6.19-2.41-9.15-3.58c-5.05-43.82-36.73-66.2-51.73-77.45
			c2.8,5.59,4.04,25.12-6.53,46.58c-9.71-8.91-14.06-18.71-13.48-31.12c0,0-77.17,42.97-75.1,104.67C-5.46,149.12,0.57,182,0.57,182
			c3.4,4.87,7.09,9.52,11.06,13.92c0.11,0.12,0.21,0.24,0.32,0.36c1.94,2.13,3.94,4.19,6.01,6.2c1.17,1.14,2.36,2.27,3.57,3.37
			c3.6,3.28,7.38,6.36,11.3,9.26c16.33,12.04,35.33,20.66,55.96,24.79c6.6,1.32,13.37,2.19,20.26,2.56
			c2.55,0.14,5.11,0.21,7.69,0.21c11.39,0,22.47-1.35,33.08-3.89c5.84-1.4,11.53-3.16,17.06-5.25c9.53-3.61,18.56-8.22,26.98-13.7
			c3.88-2.53,7.63-5.24,11.24-8.12c0.95-0.76,1.89-1.54,2.82-2.32c3.52-2.97,6.9-6.11,10.12-9.4c1.18-1.21,2.35-2.44,3.49-3.69
			c3.06-3.36,5.95-6.88,8.67-10.53c0.92-1.24,1.83-2.49,2.71-3.76C232.92,182,234.77,103.07,177.62,81.03z M141.56,49.93
			c0.2,0.35,0.4,0.69,0.59,1.04c3.22,5.83,5.65,12.03,7.25,18.54c0.96,3.9,1.63,7.91,2,12.02c0.23,2.59,0.35,5.24,0.35,7.93
			c0,10.85-1.86,22.57-5.57,34.95c-0.29-0.06-0.59-0.13-0.88-0.19c-5.84-1.2-11.81-2.04-17.88-2.49c-3.52-0.26-7.08-0.4-10.67-0.4
			c-0.58,0-1.15,0.01-1.72,0.01C128.1,107.83,142.04,85.11,141.56,49.93z M90.49,50.78c2.9,3.77,6.37,7.36,10.41,10.79
			c-3.86,5.07-8.5,10.09-14.04,14.92C85.48,64.91,88.16,55.99,90.49,50.78z M70.33,57.36c-1.64,8.32-2.01,18.68,0.97,30.55
			c-4.63,2.87-9.69,5.6-15.21,8.15c-5.74,2.65-10.88,5.49-15.52,8.47C45,85.62,58.32,69.06,70.33,57.36z M18.94,160.58
			c0.46-2.02,1.05-4.13,1.81-6.31c1.37-3.94,3.13-7.7,5.28-11.28c3.53-5.9,8.12-11.3,13.72-16.19c6.51-5.68,14.39-10.66,23.63-14.93
			c24.75-11.42,41.04-25.97,51.76-40.21c3.53-4.68,6.44-9.33,8.87-13.83c-1.15,20.77-8.46,38.12-21.85,51.77
			c-10.27,10.47-21.41,15.76-26.17,17.7c-11.29,3.39-21.99,8.15-31.91,14.1c-5.08,3.04-9.95,6.4-14.58,10.03
			c-0.84,0.66-1.67,1.32-2.5,2C24.22,155.71,21.54,158.1,18.94,160.58z M56.55,189.5c1.1,8.96,4.15,17.31,8.72,24.62
			c-13.52-6.16-25.72-14.63-36.31-25.22c-2.23-2.23-4.36-4.53-6.39-6.89c2.04-2.37,4.17-4.67,6.39-6.89
			c3.01-3.01,6.15-5.84,9.42-8.5c4.52-3.68,9.27-7.04,14.24-10.04c4.08-2.46,8.3-4.69,12.66-6.68c-2.82,4.5-5.05,9.41-6.62,14.6
			c-1.67,5.55-2.58,11.42-2.58,17.51C56.08,184.54,56.24,187.04,56.55,189.5z M147.89,211.97c-7.87,8.18-18.92,13.29-31.15,13.29
			c-6.4,0-12.47-1.41-17.93-3.91c-14.64-6.7-24.91-21.33-25.3-38.36c-0.01-0.33-0.03-0.66-0.03-0.99c0-23.85,19.4-43.25,43.25-43.25
			c10.86,0,20.79,4.03,28.39,10.67c9.1,7.94,14.86,19.6,14.86,32.59C160,193.63,155.38,204.19,147.89,211.97z M162.96,129.07
			c1.41-4.75,2.56-9.34,3.46-13.78c1.04,1.07,2.09,2.28,3.09,3.63c3.39,4.58,5.39,9.66,5.99,15.19
			C171.43,132.24,167.24,130.55,162.96,129.07z M204.53,188.9c-1.8,1.8-3.65,3.54-5.55,5.22c-4.4,3.9-9.05,7.47-13.92,10.69
			c-5.35,3.53-10.97,6.64-16.84,9.32c4.36-6.98,7.35-14.92,8.57-23.42c0.41-2.84,0.62-5.74,0.62-8.69c0-11.79-3.37-22.8-9.19-32.11
			c2.31,1.05,4.58,2.18,6.81,3.37c10.83,5.76,20.72,13.08,29.5,21.85c2.23,2.23,4.36,4.53,6.39,6.89
			C208.89,184.37,206.76,186.67,204.53,188.9z M192.82,143.52c1.75-16.28-4.07-28.17-9.87-35.71c-3.24-4.21-6.73-7.43-9.7-9.76
			c17.18,7.36,29.46,22.77,36.51,45.87c1.67,5.46,2.85,10.78,3.69,15.62C207.1,153.6,200.19,148.23,192.82,143.52z"/>
	</g>
	<g>
		<path class="st0" d="M419.16,211.1c15.5,3.45,38.47-2.3,45.64-15.78l4.88,2.58c-4.59,14.92-21.53,37.6-59.99,37.6
			c-37.6,0-63.43-34.73-63.43-68.31c0-40.47,27.55-69.46,67.16-69.46c41.62,0,61.14,21.53,61.14,66.31h-91.28
			C385.58,192.16,399.93,206.8,419.16,211.1L419.16,211.1z M383.28,159.15h56.26c0-36.17-11.77-56.55-27.56-56.55
			C395.05,102.61,383.28,131.6,383.28,159.15z"/>
		<path class="st0" d="M592.22,97.73l-1,2.6l-46.07,121.7l-6.78,17.88l-9.79,25.73c-7.44,19.51-16.08,27.56-21.51,31.85
			c-5.19,4.32-15.22,6.02-22.1,2.87c-10.06-4.6-14.35-16.36-10.06-26.39c4.6-10.07,16.36-14.66,26.42-10.07
			c5.15,2.32,8.3,6.88,9.76,11.76c1.14,3.46,8.02,1.45,12.62-10.62l9.96-26.91l-0.41-0.17l1.14-3.01
			c-17.95-41.33-62.7-137.24-62.7-137.24h39.15l41.78,89.06l20.03-52.85l12.73-33.62l0.97-2.6H592.22z"/>
		<path class="st0" d="M720.81,97.72l-17.82,44.17l-0.14,0.35l-17.33,42.82l-20.06,50.46h-4.6
			c-50.81-110.22-63.57-137.79-63.57-137.79h39.39l41.95,89.78l16.25-40.19l0.35-0.9l19.69-48.71H720.81z"/>
		<path class="st0" d="M824.8,155.15v2.73l-0.35,77.09v0.52h-6.02c-0.28,0.03-0.55,0.03-0.83,0.03c0,0-0.24,0-0.62-0.03h-28.36
			v-22.41c-4.77,12.24-21.41,22.44-41.33,22.44c0,0-32.99,0-32.99-29.29c0-31.3,24.11-34.17,74.32-46.79v-17.78
			c0-29.85-16.63-44.79-36.45-34.44c-9.17,4.6-10.31,9.48-8.3,9.75c4.29,0.59,8.03,2.59,10.62,6.33c5.15,7.44,3.15,17.5-4.32,22.66
			c-7.47,4.87-17.5,3.15-22.69-4.29c-3.42-5.46-3.7-12.34-0.83-17.22c2.87-4.88,6.6-12.62,22.38-20.96
			c12.9-6.88,27.84-5.74,27.84-5.74C814.47,97.73,824.8,121.25,824.8,155.15z M788.63,178.84c0-7.68,0-14.22,0-14.22
			c-28.12,6.29-37.59,19.78-37.59,34.45c0,0,0,18.92,18.67,18.92c9.76,0,16.36-7.75,18.92-14.63V178.84z"/>
		<path class="st0" d="M936.03,220c0,0-10.91,15.5-40.18,15.5c-34.73,0-51.95-13.2-51.95-13.2v-36.16h4.88
			c4.31,11.19,13.49,44.49,47.07,44.49c20.38,0,23.83-25.83,2.01-40.19l-28.99-17.51c-27.85-16.94-35.3-40.19-19.52-60.85
			c0,0,10.91-14.35,39.61-14.35c33.01,0,47.36,8.61,47.36,8.61v32.15h-4.88c-3.73-10.04-12.91-35.88-42.48-35.88
			c-18.65,0-26.7,22.1-1.72,37.89l28.99,18.08C941.77,174.36,950.38,199.34,936.03,220z"/>
		<path class="st0" d="M1093.21,55.25c0-10.91,8.61-19.52,19.52-19.52c10.91,0,19.81,8.61,19.81,19.52
			c0,10.91-8.9,19.52-19.81,19.52C1101.82,74.77,1093.21,66.15,1093.21,55.25z M1095.07,235.49V109.95l35.59-12.23v137.76H1095.07z"
			/>
		<g>
			<polygon class="st0" points="298.96,235.49 334.83,235.49 334.83,18.53 298.96,30.76 			"/>
			<polygon class="st0" points="956.7,30.76 956.7,235.21 992.57,235.21 992.57,18.53 			"/>
			<path class="st0" d="M1066.54,215.49c0,0-0.58,0-44.76-62.37l20.74-22.51l30.61-33.17h-8.82l-38.61,41.88l-0.18,0.21
				c-2.7,3.09-4.68,5.11-4.68,5.11l-28.12,30.47c0,0,7.78,11.96,16.75,25.14c20.02,29.85,22.72,35.26,43.36,35.26h42.14v-5.08
				C1089.87,230.11,1076.4,229.25,1066.54,215.49z"/>
		</g>
	</g>
</g>
</svg>
