<?xml version="1.0" encoding="utf-8"?>
<!-- Generator: Adobe Illustrator 24.1.0, SVG Export Plug-In . SVG Version: 6.00 Build 0)  -->
<svg version="1.1" id="Layer_1" xmlns="http://www.w3.org/2000/svg" xmlns:xlink="http://www.w3.org/1999/xlink" x="0px" y="0px"
	 viewBox="0 0 156.97 527.32" style="enable-background:new 0 0 156.97 527.32;" xml:space="preserve">
<style type="text/css">
	.st0{fill:#232323;}
</style>
<g>
	<path class="st0" d="M51.7,327.61c-3.39-5.09-5.37-11.2-5.37-17.76c0-10.07,4.65-19.06,11.92-24.96H47.01
		c-5.45,6.86-8.71,15.54-8.71,24.96c0,2.57,0.25,5.08,0.71,7.52C42.68,321.39,46.95,324.86,51.7,327.61z"/>
	<path class="st0" d="M63.86,60.5c-3.79-7.67-11.24-26.13-5.58-43.32c1.53-4.64,3.89-8.82,7.06-12.52
		c-2.47,1.54-4.75,3.19-6.83,4.95c-6.15,5.23-10.59,11.46-13.18,18.54c-3.63,9.91-2.64,18.83-2.13,21.88
		C48.94,54.15,55.95,57.53,63.86,60.5z"/>
	<path class="st0" d="M52.03,82.68c5.67-3.66,10.02-8.78,13.33-14.01c-14.42-5-26.55-11.18-34.77-20.21
		c-1.33,4.76-2.74,13.6,1.89,21.27C36.07,75.69,42.62,80.01,52.03,82.68z"/>
	<path class="st0" d="M70.74,58.15c2.66-6.45,3.7-11.42,3.73-11.55l1.3-6.51l4.74,4.64c0.47,0.46,3.37,3.33,7.32,7.84
		c6.5-3.92,11.08-7.29,14.45-10.92c-5.08-2.74-11.35-7.31-15.52-14.51C82.27,19.39,81.06,10.29,83.11,0
		c-9.25,4.7-15.3,11.22-18,19.42C60.08,34.72,67.63,52.03,70.74,58.15z"/>
	<path class="st0" d="M102.46,71.73c4.94,1.5,9.4,3.32,13.44,5.33c2.07-2.79,5.02-7.48,6.82-13.54c3.39-11.44,1.48-22.97-5.68-34.36
		c-3.75,12.64-9.53,19.79-24.52,28.97C95.72,62.08,99.19,66.7,102.46,71.73z"/>
	<path class="st0" d="M31.22,306.38c0.57-7.85,3.06-15.17,7-21.5H25.09C25.6,292.61,27.76,299.89,31.22,306.38z"/>
	<path class="st0" d="M42.31,220.57c1.34,0,2.57-0.45,3.56-1.2c1.43-1.08,2.36-2.79,2.36-4.72c0-2.15-1.15-4.02-2.86-5.06
		c-0.89-0.54-1.94-0.86-3.06-0.86c-1.59,0-3.04,0.63-4.1,1.66c-1.12,1.08-1.82,2.59-1.82,4.26c0,1.9,0.9,3.59,2.3,4.68
		C39.69,220.1,40.94,220.57,42.31,220.57z"/>
	<path class="st0" d="M130.98,119.92h14.57c-1.28-3.63-3.68-9.18-7.86-15.13c-7.34-10.44-17.25-18.27-29.54-23.39
		c2.62,5,4.83,10.22,6.26,15.44c4.04,2.47,7.4,5.32,10.09,8.56C129.1,110.94,130.55,116.38,130.98,119.92z"/>
	<path class="st0" d="M41.67,160.32H18.45c2.58,2.79,5.37,5.4,8.36,7.82c4.6,3.73,9.6,6.92,14.87,9.55V160.32z"/>
	<path class="st0" d="M36.43,138.36c2.34-4.16,3.69-8.32,4.44-11.25H0c2.51,9.35,6.78,18.17,12.51,26.01
		C22.95,152.98,30.99,148.02,36.43,138.36z"/>
	<path class="st0" d="M64.79,93.69c0.68-0.39,1.34-0.78,1.98-1.16c3.54-2.15,6.49-4.32,8.86-6.53c3.69-3.43,5.98-6.96,6.94-10.63
		c0.12-0.45,0.21-0.9,0.3-1.36c0.41-2.32,0.35-4.79-0.22-7.52c-0.61-2.91-1.79-6.14-3.61-9.83c-0.82,2.34-1.88,5.02-3.21,7.86
		c-0.65,1.39-1.37,2.82-2.16,4.27c-0.41,0.75-0.83,1.48-1.26,2.2c-3.23,5.43-6.96,10-11.1,13.67c-2.57,2.27-5.3,4.19-8.18,5.74
		c-3.64,1.97-7.51,3.36-11.58,4.13c-20.46,3.87-26.86,18.34-28.79,25.41h32.19C47.01,114.19,53.04,100.4,64.79,93.69z"/>
	<path class="st0" d="M118.79,109.77c-0.82-0.97-1.72-1.88-2.68-2.74c0.22,4.43-0.33,8.77-1.86,12.89h9.49
		C123.31,117.41,122.1,113.68,118.79,109.77z"/>
	<path class="st0" d="M82.08,186.27c8.96-0.39,17.75-2.24,26.02-5.41v-20.53H82.08V186.27z"/>
	<path class="st0" d="M78.49,193.54c-3.81,0-7.6-0.24-11.35-0.72c2.04,7.76,3.5,17,3.5,27.54c0,10.24-1.38,19.25-3.32,26.87h22.3
		c-1.95-7.62-3.32-16.63-3.32-26.87c0-10.54,1.46-19.78,3.5-27.54C86.06,193.3,82.28,193.54,78.49,193.54z"/>
	<path class="st0" d="M114.27,141.88c-1.01-1.79-1.86-3.58-2.57-5.3c-0.72,1.72-1.56,3.51-2.57,5.3c-2.58,4.58-5.71,8.34-9.32,11.25
		h23.79C119.98,150.23,116.85,146.47,114.27,141.88z"/>
	<path class="st0" d="M112.63,201.69c1.1-6.37,2.66-12,4.36-16.82c-6.14,2.91-12.62,5.12-19.29,6.58
		c-2.37,7.86-4.21,17.59-4.21,28.9c0,10.5,1.59,19.58,3.6,26.87h17.28c-1.49-5.84-2.65-12.51-3.11-19.91
		c-5.59-1.5-9.72-6.61-9.72-12.67C101.55,208.11,106.36,202.67,112.63,201.69z"/>
	<path class="st0" d="M45.67,227.33c-0.46,7.4-1.61,14.06-3.11,19.9h17.26c2.08-7.48,3.62-16.52,3.62-26.87
		c0-11.5-1.92-21.31-4.19-28.91c-5.94-1.3-11.72-3.2-17.26-5.66h-0.32v-0.14c-0.58-0.26-1.16-0.53-1.73-0.8
		c1.7,4.82,3.27,10.45,4.36,16.83c6.29,0.96,11.12,6.41,11.12,12.96C55.43,220.72,51.28,225.84,45.67,227.33z"/>
	<path class="st0" d="M129.51,65.91c-1.94,6.38-4.93,11.41-7.28,14.7c10.24,6.37,17.12,13.96,21.55,20.34
		c0.4,0.58,0.78,1.15,1.15,1.71c0.96-6.36,1.78-15.44,0.97-25.49c-0.88-11.04-3.53-21.08-7.87-29.83c-3.14-6.33-7.18-12-12.08-16.98
		C133.2,44.72,132.15,57.26,129.51,65.91z"/>
	<path class="st0" d="M45.27,136.58c-0.72,1.72-1.56,3.51-2.57,5.3c-2.58,4.58-5.71,8.34-9.32,11.25h23.79
		c-3.62-2.9-6.74-6.66-9.32-11.25C46.84,140.09,45.99,138.3,45.27,136.58z"/>
	<path class="st0" d="M74.89,160.32H48.87v20.53c8.27,3.17,17.07,5.02,26.02,5.41V160.32z"/>
	<path class="st0" d="M89.52,77.18c-0.9,3.44-2.59,6.72-5.09,9.87c-1.75,2.2-3.91,4.34-6.47,6.42c-2.73,2.22-5.93,4.37-9.6,6.47
		c-8.31,4.75-13.33,14.3-15.7,19.98h53.7c2.9-5.52,3.12-11.87,1.78-18.33c-0.64-3.07-1.62-6.17-2.84-9.22
		c-2.04-5.11-4.73-10.06-7.48-14.49c-0.26-0.41-0.51-0.82-0.77-1.22c-1.73-2.71-3.54-5.31-5.35-7.76c-0.59-0.79-1.17-1.58-1.75-2.34
		c0.1,0.65,0.18,1.3,0.24,1.94c0.22,2.44,0.12,4.89-0.37,7.33C89.74,76.29,89.64,76.73,89.52,77.18z"/>
	<path class="st0" d="M54.22,138.54c5.51,9.68,13.68,14.59,24.27,14.59c10.66,0,18.86-4.97,24.37-14.77
		c2.34-4.16,3.69-8.32,4.44-11.25H49.68C50.44,130.09,51.83,134.35,54.22,138.54z"/>
	<path class="st0" d="M40.19,87.44c0.8-0.15,1.58-0.33,2.35-0.54c-7.37-3.24-12.8-7.75-16.26-13.51c-2.59-4.31-3.74-8.8-4.09-12.99
		c-4.8,12.19-8.82,27.54-6.97,40.42C20.34,95.18,28.22,89.7,40.19,87.44z"/>
	<path class="st0" d="M98.73,284.88c7.26,5.9,11.92,14.9,11.92,24.96c0,6.56-1.98,12.67-5.37,17.76c4.74-2.75,9.02-6.21,12.7-10.23
		c0.47-2.44,0.71-4.96,0.71-7.54c0-9.43-3.26-18.1-8.71-24.96H98.73z"/>
	<path class="st0" d="M13.54,270.71c0,3.85,3.13,6.98,6.98,6.98h115.93c3.85,0,6.98-3.13,6.98-6.98v-1.06H13.54V270.71z"/>
	<path class="st0" d="M125.75,306.38c3.46-6.49,5.62-13.77,6.14-21.5h-13.14C122.69,291.21,125.18,298.54,125.75,306.38z"/>
	<path class="st0" d="M66.86,340.88L66.86,340.88l-16.89,8.87l22.59,11.87l43.06-22.61l1.98-11.32
		C107.03,336.61,93.37,342,78.49,342C74.51,342,70.63,341.61,66.86,340.88z"/>
	<polygon class="st0" points="108.36,380.42 114.05,347.95 80.29,365.68 	"/>
	<path class="st0" d="M114.66,208.72c-1.14,0-2.2,0.33-3.1,0.89c-1.69,1.04-2.82,2.91-2.82,5.04c0,1.91,0.91,3.61,2.32,4.69
		c1,0.77,2.25,1.23,3.6,1.23c1.35,0,2.59-0.46,3.59-1.22c1.42-1.08,2.34-2.79,2.34-4.7c0-1.69-0.72-3.21-1.86-4.3
		C117.67,209.35,116.24,208.72,114.66,208.72z"/>
	<path class="st0" d="M120.64,138.54c5.44,9.55,13.45,14.45,23.82,14.59c5.73-7.84,10-16.67,12.51-26.01h-40.86
		C116.87,130.09,118.26,134.35,120.64,138.54z"/>
	<path class="st0" d="M13.54,261.4v1.06h129.89v-1.06c0-3.85-3.13-6.98-6.98-6.98H20.52C16.67,254.42,13.54,257.55,13.54,261.4z"/>
	<circle class="st0" cx="78.49" cy="309.85" r="5.92"/>
	<path class="st0" d="M106.23,424.09h-5.52h-1.78H58.04h-1.78h-5.52h-1.78h-5.59c-3.85,0-6.98,3.13-6.98,6.98v1.06h84.2v-1.06
		c0-3.85-3.13-6.98-6.98-6.98h-5.59H106.23z"/>
	<path class="st0" d="M115.3,177.69c5.27-2.63,10.27-5.82,14.87-9.55c2.98-2.42,5.77-5.04,8.36-7.82H115.3V177.69z"/>
	<polygon class="st0" points="44.12,354.81 47.61,374.72 64.83,365.68 	"/>
	<polygon class="st0" points="107.06,387.86 72.56,369.75 49.97,381.61 103.25,409.59 	"/>
	<path class="st0" d="M36.39,440.38c0,3.85,3.13,6.98,6.98,6.98h70.24c3.85,0,6.98-3.13,6.98-6.98v-1.06h-84.2V440.38z"/>
	<path class="st0" d="M78.49,334.81c13.76,0,24.96-11.2,24.96-24.96c0-13.76-11.2-24.96-24.96-24.96s-24.96,11.2-24.96,24.96
		C53.52,323.61,64.72,334.81,78.49,334.81z M78.49,296.73c7.23,0,13.12,5.88,13.12,13.12s-5.88,13.12-13.12,13.12
		c-7.23,0-13.12-5.88-13.12-13.12S71.25,296.73,78.49,296.73z"/>
	<path class="st0" d="M56.85,338.02c-6.42-2.46-12.32-5.97-17.48-10.33l0,0.03l3.13,17.84l14.34-7.53L56.85,338.02z"/>
	<polygon class="st0" points="56.78,416.89 100.19,416.89 101.67,416.89 50.27,389.89 55,416.89 	"/>
	<polygon class="st0" points="82.08,454.55 82.08,502.31 101.02,480.67 91.22,454.55 	"/>
	<circle class="st0" cx="78.49" cy="521.4" r="5.92"/>
	<polygon class="st0" points="74.89,454.55 65.75,454.55 55.95,480.67 74.89,502.31 	"/>
</g>
</svg>
