<?xml version="1.0" encoding="UTF-8"?>
<svg enable-background="new 0 0 414.65 432" version="1.1" viewBox="0 0 414.65 432" xml:space="preserve" xmlns="http://www.w3.org/2000/svg">
	<path d="m403.31 223.38l-0.22-0.05c0.1 0.41 0.2 0.81 0.3 1.22l-0.08-1.17z"/>
	<path d="m207.83 272.5c-28.4 0-51.5 23.1-51.5 51.5s23.1 51.5 51.5 51.5 51.5-23.1 51.5-51.5-23.1-51.5-51.5-51.5zm0 72c-11.3 0-20.5-9.2-20.5-20.5s9.2-20.5 20.5-20.5 20.5 9.2 20.5 20.5-9.2 20.5-20.5 20.5z"/>
	<path d="m316.2 144.25c-5.6-2.16-11.02-4.28-16.28-6.37-8.99-78.01-65.39-117.85-92.09-137.88 4.98 9.96 7.19 44.71-11.63 82.92-17.29-15.85-25.02-33.3-24-55.4 0 0-137.38 76.49-133.7 186.34-48.22 51.6-37.48 110.14-37.48 110.14 6.05 8.67 12.63 16.95 19.7 24.78 0.19 0.21 0.37 0.43 0.56 0.64 3.45 3.79 7.02 7.46 10.69 11.03 2.09 2.03 4.2 4.04 6.35 6 6.41 5.83 13.13 11.32 20.12 16.48 29.07 21.44 62.9 36.77 99.62 44.14 11.75 2.36 23.79 3.89 36.07 4.55 4.53 0.24 9.1 0.38 13.69 0.38 20.28 0 40-2.4 58.89-6.93 10.39-2.49 20.53-5.62 30.37-9.35 16.96-6.43 33.05-14.64 48.03-24.39 6.91-4.5 13.59-9.33 20.01-14.46 1.69-1.36 3.36-2.74 5.02-4.14 6.27-5.29 12.29-10.87 18.02-16.74 2.11-2.15 4.18-4.34 6.21-6.57 5.44-5.99 10.59-12.24 15.43-18.74 1.64-2.2 3.25-4.43 4.83-6.68 0.01 0 3.3-140.51-98.43-179.75zm57.22 111.96c2.97 9.72 5.07 19.19 6.57 27.81-11.31-10.59-23.61-20.14-36.73-28.52 3.11-28.97-7.25-50.15-17.57-63.57-5.76-7.49-11.97-13.23-17.26-17.37 30.59 13.09 52.45 40.54 64.99 81.65zm-197.51 137.83c-26.06-11.93-44.35-37.96-45.03-68.29-0.01-0.59-0.04-1.17-0.04-1.76 0-42.46 34.54-77 77-77 19.33 0 37.01 7.18 50.55 18.99 16.19 14.13 26.45 34.89 26.45 58.01 0 20.7-8.22 39.5-21.55 53.35-14.03 14.57-33.7 23.66-55.46 23.66-11.39 0-22.19-2.5-31.92-6.96zm120.36-188.8c1.85 1.91 3.72 4.06 5.5 6.46 6.04 8.15 9.59 17.19 10.67 27.04-7.27-3.32-14.71-6.33-22.33-8.96 2.51-8.47 4.55-16.64 6.16-24.54zm-30.31-81.5c1.71 6.95 2.91 14.09 3.56 21.39 0.42 4.61 0.61 9.32 0.62 14.12 0.01 19.32-3.31 40.17-9.91 62.22-0.52-0.11-1.04-0.23-1.57-0.33-10.39-2.13-21.02-3.63-31.83-4.44-6.27-0.47-12.61-0.71-19-0.71-1.03 0-2.05 0.01-3.07 0.03 23.29-24.07 48.09-64.51 47.23-127.14 0.35 0.62 0.71 1.23 1.06 1.85 5.74 10.39 10.05 21.43 12.91 33.01zm-86.34-14.13c-6.88 9.02-15.14 17.97-25 26.56-2.45-20.63 2.32-36.49 6.46-45.77 5.17 6.71 11.35 13.11 18.54 19.21zm-54.43-7.5c-2.92 14.82-3.58 33.26 1.72 54.39-8.25 5.1-17.25 9.96-27.08 14.5-10.21 4.71-19.38 9.78-27.63 15.08 7.9-33.67 31.62-63.15 52.99-83.97zm-88.26 172.52c2.44-7.02 5.58-13.71 9.4-20.09 6.29-10.5 14.45-20.11 24.43-28.82 11.58-10.11 25.61-18.99 42.06-26.58 44.05-20.33 73.05-46.22 92.15-71.59 6.28-8.34 11.47-16.61 15.79-24.62-2.05 36.97-15.06 67.87-38.89 92.16-18.28 18.63-38.1 28.05-46.59 31.5-20.1 6.04-39.15 14.52-56.8 25.09-9.04 5.42-17.71 11.39-25.96 17.86-1.5 1.17-2.98 2.36-4.45 3.56-4.95 4.06-9.74 8.32-14.37 12.74 0.83-3.57 1.88-7.33 3.23-11.21zm14.63 61.64c-3.96-3.96-7.76-8.06-11.38-12.27 3.63-4.21 7.42-8.31 11.38-12.27 5.36-5.36 10.95-10.4 16.76-15.14 8.04-6.56 16.49-12.53 25.34-17.87 7.26-4.38 14.77-8.35 22.53-11.89-5.01 8.02-8.99 16.75-11.78 25.99-2.97 9.87-4.59 20.33-4.59 31.18 0 4.52 0.29 8.97 0.83 13.34 1.97 15.94 7.39 30.82 15.53 43.83-24.05-10.97-45.77-26.05-64.62-44.9zm277.88 28.31c-9.52 6.28-19.53 11.82-29.97 16.59 7.77-12.43 13.09-26.55 15.26-41.69 0.73-5.05 1.1-10.22 1.1-15.48 0-20.99-6-40.59-16.36-57.17 4.11 1.87 8.15 3.88 12.12 5.99 19.28 10.25 36.88 23.28 52.51 38.91 3.96 3.96 7.76 8.06 11.38 12.27-3.63 4.21-7.42 8.31-11.38 12.27-3.21 3.21-6.5 6.3-9.88 9.28-7.83 6.95-16.1 13.3-24.78 19.03z"/>
</svg>
