<svg enable-background="new 0 0 570.46 632.5" version="1.1" viewBox="0 0 570.46 632.5" xml:space="preserve" xmlns="http://www.w3.org/2000/svg">
	<path class="st0" d="m147.81 83.78l0.11 0.13c0.78 0.9 6.41 7.54 14.14 19.55 1.52 2.36 3.11 4.92 4.77 7.69 1.46 2.45 2.98 5.05 4.52 7.81 3.66 6.55 7.51 13.99 11.35 22.29 1.22 2.65 2.45 5.4 3.66 8.23 1.16 2.7 2.32 5.47 3.46 8.32 1.47 3.67 2.92 7.46 4.34 11.38 7.23-3.57 14.77-6.85 22.44-9.74l0.57-0.21c-1.41-3.88-2.84-7.6-4.28-11.18-1.15-2.87-2.3-5.64-3.45-8.32-1.23-2.86-2.45-5.61-3.66-8.24-0.43-0.94-0.87-1.88-1.3-2.79-3.37-7.17-6.75-13.72-10.02-19.67-1.52-2.77-3.02-5.4-4.49-7.91-1.62-2.77-3.2-5.37-4.73-7.81-4.16-6.64-7.9-12.05-10.93-16.18l59.15-51.76c5.7 0.68 16.16 2.69 26.34 8.61 13.96 8.13 22.89 20.99 26.71 38.36l1.52-0.06c0.78-0.03 1.56-0.05 2.34-0.08 3.68-0.12 7.3-0.18 10.79-0.18 3.54 0 7.16 0.05 10.78 0.12 0.71 0.01 1.41 0.02 2.11 0.04l1.77 0.04c3.83-17.31 12.76-30.14 26.69-38.25 10.18-5.93 20.66-7.93 26.33-8.61l59.15 51.76c-2.17 2.96-4.71 6.58-7.5 10.84-1.6 2.43-3.27 5.07-5.02 7.92-1.54 2.51-3.12 5.17-4.74 8-3.83 6.68-7.85 14.25-11.89 22.69-0.34 0.71-0.68 1.41-1.01 2.12-0.93 1.99-1.88 4.05-2.83 6.18-1.2 2.68-2.4 5.47-3.61 8.36-1.88 4.51-3.77 9.28-5.63 14.31 7.88 2.47 15.79 5.3 23.54 8.41 2.05-5.53 4.14-10.73 6.21-15.57 1.23-2.88 2.45-5.63 3.66-8.26 0.28-0.61 0.56-1.22 0.84-1.82 1.02-2.18 2.04-4.3 3.05-6.36 4.16-8.43 8.27-15.85 12.08-22.23 1.68-2.82 3.3-5.41 4.85-7.81 1.84-2.87 3.57-5.44 5.14-7.7 5.25-7.55 8.82-11.75 9.31-12.31l0.09-0.11 8.26-9.29-0.07-0.06 0.06-0.07-9.37-8.2-9.31-8.27-0.06 0.07-58.4-51.1-7.77-6.86h-4.7c-0.27 0-2.48 0.01-6.01 0.39-7.77 0.82-21.95 3.37-36.12 11.34-10.24 5.76-21.53 14.93-29.87 29.4-8.35-14.47-19.63-23.64-29.87-29.4-14.17-7.97-28.35-10.53-36.11-11.34-3.54-0.38-5.74-0.39-6.01-0.39h-4.7l-7.82 6.84-58.38 51.08-0.06-0.07-9.29 8.26-9.39 8.21 0.06 0.07-0.07 0.06 8.28 9.33z"/>
	<path class="st0" d="m218.02 411.53c0.08-0.21 0.17-0.42 0.26-0.63 8.47-21.19 14.65-41.87 18.52-61.89 0.58-3.01 1.12-6.02 1.6-9 0.48-3.02 0.92-6.02 1.29-9 1.07-8.47 1.71-16.81 1.91-25 0.04-1.84 0.08-3.68 0.08-5.5 0-1.18-0.02-2.33-0.03-3.5-0.02-3.03-0.08-6.03-0.16-9-0.73-25.38-3.65-48.7-7.83-69.73-4.56 1.85-9.04 3.86-13.34 6.01-1.54 0.77-3.19 1.63-5.2 2.71l-4.73 2.54c3.26 17.97 5.47 37.48 6.11 58.46 0.09 2.97 0.14 5.97 0.16 9 0.01 1.17 0.03 2.33 0.03 3.5 0 1.83-0.04 3.67-0.09 5.5-0.23 8.35-0.96 16.69-2.13 25-0.42 3.01-0.91 6.01-1.45 9-0.53 3.01-1.12 6.01-1.76 9-3.61 16.91-8.83 33.53-15.07 49.52l2.86 1.89c6.2 4.08 12.58 7.81 18.97 11.12z"/>
	<path class="st0" d="m476.59 521.21c-1.78-2.37-3.58-4.8-5.4-7.29-1.75-2.4-3.52-4.85-5.29-7.35-3.52-4.96-7.06-10.1-10.6-15.42-1.15-1.72-2.31-3.49-3.47-5.28-1.61-2.47-3.23-5.02-4.85-7.61-1.57-2.51-3.15-5.06-4.73-7.67-3.63-5.98-7.25-12.22-10.83-18.69-6.8 4.77-13.86 9.21-21.05 13.18l-0.2 0.11c3.04 5.45 6.21 10.91 9.51 16.4 1.55 2.58 3.13 5.16 4.75 7.75 1.6 2.56 3.21 5.13 4.87 7.69 1.8 2.79 3.62 5.59 5.49 8.39 2.89 4.34 5.78 8.54 8.65 12.64 1.78 2.54 3.54 5.01 5.3 7.45 1.82 2.52 3.62 4.99 5.41 7.4 28.69 38.74 52.97 63.18 54.21 64.41l8.84 8.84 17.67-17.67-8.83-8.84c-0.3-0.27-22.74-22.87-49.45-58.44z"/>
	<path class="st0" d="m313.68 564.81c-4.39 0.13-8.49 0.19-12.5 0.19-4 0-8.17-0.08-12.41-0.23h-0.09v36.23h0.1c0 19.87 0.01 31.5 0.01 31.5l25-0.01s-0.01-26.42-0.02-67.69c-0.03 0.01-0.06 0.01-0.09 0.01z"/>
	<path class="st0" d="m450.62 120.92c-3.72 6.23-7.3 12.8-10.67 19.54 5.53 2.36 10.92 4.88 16.16 7.57 36.36 18.6 65.48 44.6 86.56 77.25l6.78 10.5 21-13.56-6.78-10.5c-23.5-36.4-55.85-65.31-96.17-85.95-5.03-2.57-10.17-5-15.42-7.3l-1.46 2.45z"/>
	<path class="st0" d="m331.65 90.96c-2.98-0.19-5.99-0.35-9.02-0.48-2.95-0.13-5.91-0.24-8.9-0.32h-0.1c-4.12-0.1-8.26-0.16-12.45-0.16-4.17 0-8.32 0.09-12.45 0.24h-0.1c-2.98 0.11-5.95 0.28-8.91 0.48-3.02 0.2-6.03 0.43-9.02 0.72-20.32 1.93-40.01 5.83-58.96 11.65 3.15 5.84 6.19 11.85 9.04 17.92 0.45 0.96 0.91 1.95 1.36 2.94l0.87 1.88c15.39-4.47 31.3-7.56 47.68-9.26 2.98-0.31 5.98-0.57 9-0.79 2.99-0.22 5.98-0.4 9-0.52 4.14-0.17 8.3-0.26 12.5-0.26 4.21 0 8.37 0.06 12.5 0.17 3.02 0.08 6.02 0.2 9 0.34 3.02 0.14 6.02 0.31 9 0.51 17.15 1.15 33.56 3.3 49.22 6.43l1.75-3.66c3.17-6.63 6.53-13.13 10.01-19.41-19.3-4.26-39.66-7.07-61.02-8.42z"/>
	<path class="st0" d="m414.16 506.79l-1.92-2.99c-24.92 8.96-51.84 14.63-80.56 16.96-2.98 0.24-5.98 0.45-9 0.62-2.96 0.17-5.92 0.31-8.92 0.4h-0.08c-4.13 0.13-8.3 0.21-12.5 0.21-4.17 0-8.3-0.09-12.42-0.26h-0.08c-2.99-0.12-5.96-0.31-8.92-0.52-3.02-0.22-6.01-0.49-9-0.8-27.53-2.85-53.73-9.63-78.34-20.26l-1.18 1.87c-2.89 4.57-5.81 9.07-8.68 13.39-1.25 1.87-2.57 3.84-4.02 5.95 28.87 13 59.74 21.1 92.23 24.19 2.99 0.28 5.99 0.53 9 0.73 2.96 0.2 5.93 0.35 8.91 0.47h0.09c4.11 0.16 8.25 0.24 12.41 0.24 4.23 0 8.39-0.07 12.5-0.2h0.09c3-0.09 5.97-0.22 8.91-0.38 3.03-0.16 6.03-0.35 9-0.58 36.19-2.73 67.59-10.25 94.76-20.67-2.31-3.33-4.5-6.55-6.64-9.76-1.73-2.57-3.52-5.31-5.64-8.61z"/>
	<path class="st0" d="m549.45 390.22l-6.78 10.5c-19.52 30.24-45.43 56.23-75.43 75.84 1.11 1.7 2.11 3.22 3.04 4.62 3.26 4.89 6.72 9.93 10.3 14.98l0.71 1c40.57-26.6 66.79-58.73 82.38-82.88l6.78-10.5-21-13.56z"/>
	<path class="st0" d="m125.73 490.51l0.03-0.04c2.14-3.09 4.26-6.21 6.3-9.28 2.3-3.45 4.68-7.13 7.09-10.94l0.39-0.62c-19.09-14.12-36.91-31-53.23-50.48-36.37-43.42-54.81-87.49-59.84-100.66 4.98-13.09 23.16-56.63 59.3-99.99 23.97-28.76 51.2-51.9 80.97-68.87l-0.38-0.83c-3.35-7.25-6.96-14.33-10.73-21.06l-0.23-0.41c-32.79 18.51-62.67 43.77-88.84 75.17-37.71 45.27-56.94 90.13-63.05 106.05-1.34 3.48-2.05 5.59-2.19 6l-1.32 3.95 1.32 3.95c0.14 0.41 0.85 2.52 2.19 6 6.11 15.92 25.34 60.78 63.07 106.05 18.04 21.65 37.84 40.39 59.15 56.01z"/>
	<path class="st0" d="m185.42 477.02c2.08-3.52 4.1-7.03 6.06-10.54-7.36-3.74-14.67-7.92-21.75-12.4-1.98 3.55-3.98 7.02-5.98 10.43-1.54 2.62-3.09 5.19-4.64 7.72-1.59 2.59-3.17 5.15-4.75 7.65-2.46 3.89-4.91 7.66-7.32 11.28-2.16 3.25-4.33 6.44-6.49 9.56-1.73 2.5-3.46 4.95-5.18 7.37-1.77 2.48-3.53 4.92-5.28 7.3-28.57 38.92-53.46 63.98-53.75 64.28l-8.84 8.84 17.68 17.68 8.84-8.84c1.28-1.28 27.5-27.67 57.68-69.14 1.75-2.41 3.52-4.87 5.29-7.38 1.72-2.44 3.45-4.9 5.19-7.43 1.8-2.61 3.59-5.25 5.4-7.96 2.9-4.34 5.71-8.68 8.44-13.02 1.62-2.56 3.2-5.12 4.76-7.67 1.57-2.58 3.13-5.16 4.64-7.73z"/>
	<path class="st0" d="m198.57 306h-36.9v25h34.6l0.35-2.5c1.09-7.68 1.74-15.24 1.95-22.5z"/>
	<path class="st0" d="m385.87 288c0.7-22.84 3.28-43.85 6.96-62.89l-3.01-1.25c-6.84-2.84-13.81-5.39-20.72-7.6-4.4 21.56-7.47 45.55-8.23 71.75-0.09 2.97-0.14 5.97-0.16 9-0.01 1.17-0.03 2.32-0.03 3.5 0 1.82 0.03 3.66 0.08 5.5 0.2 8.19 0.84 16.53 1.91 25 0.38 2.98 0.81 5.98 1.29 9 0.48 2.98 1.01 5.99 1.6 9 3.83 19.81 9.92 40.27 18.25 61.22 5.95-3.46 11.81-7.34 17.45-11.61l3.83-2.91c-5.75-15.12-10.58-30.78-13.98-46.7-0.64-2.99-1.23-5.99-1.76-9-0.53-2.99-1.02-5.99-1.44-9-1.17-8.31-1.9-16.65-2.13-25-0.05-1.83-0.09-3.67-0.09-5.5 0-1.18 0.02-2.33 0.03-3.5 0.01-3.04 0.06-6.04 0.15-9.01z"/>
	<path class="st0" d="m393.69 453.51c2.68-1.33 5.35-2.71 7.98-4.16 7.28-4.02 14.37-8.5 21.27-13.44 2.47-1.77 4.9-3.62 7.32-5.5 2.41-1.88 4.8-3.82 7.16-5.82 9.16-7.76 17.93-16.36 26.23-25.84 32.65-37.28 46.77-74.28 47.35-75.84l6.35-16.9h-113.57c0.22 7.26 0.86 14.82 1.94 22.5l0.35 2.5h73.67c-6.8 13.1-18.21 32.19-34.91 51.26-5.9 6.73-12 12.95-18.3 18.68-2.34 2.13-4.72 4.2-7.11 6.2-2.4 2-4.83 3.95-7.29 5.81-6.87 5.21-13.95 9.87-21.24 13.98-2.63 1.48-5.28 2.88-7.96 4.22-2.69 1.35-5.41 2.61-8.15 3.82-13.71 6.01-28.09 10.22-43.09 12.62v25.24c18.73-2.69 36.75-7.88 53.87-15.48 2.72-1.23 5.43-2.51 8.13-3.85z"/>
	<path class="st0" d="m331.68 331h12.87c-0.98-8.34-1.6-16.59-1.79-24.57l-0.01-0.43h-83.15l-0.01 0.43c-0.19 7.97-0.8 16.23-1.79 24.57h73.88z"/>
	<path class="st0" d="m313.75 474.63c0-8.19 0-16.55-0.01-25.04v-9.02-9.02c-0.01-26.88-0.01-54.77-0.02-82.56h-25.04v154.73h0.08l0.74 0.03c3.92 0.16 7.85 0.24 11.68 0.24s7.84-0.07 11.92-0.2l0.58-0.02h0.08v-11.13-9.01c-0.01-2.97-0.01-5.97-0.01-9z"/>
	<path class="st0" d="m199.94 186.41c-2.72 1.38-5.42 2.82-8.11 4.32-2.69 1.49-5.35 3.04-8.01 4.65-18.78 11.35-36.71 25.51-53.49 42.29-30.6 30.6-48.58 60.97-54.32 71.44-1.2 2.19-1.88 3.54-2.02 3.8l-2.8 5.59 2.8 5.59c0.13 0.27 0.81 1.61 2.02 3.8 5.75 10.48 23.72 40.84 54.32 71.45 10.56 10.56 21.58 20.06 32.97 28.5 2.45 1.82 4.92 3.59 7.4 5.31 2.5 1.72 5.01 3.41 7.54 5.04 7.13 4.57 14.4 8.72 21.77 12.45 0.35 0.18 0.71 0.37 1.06 0.54 2.34 1.17 4.69 2.28 7.05 3.36 2.74 1.26 5.49 2.47 8.26 3.61 17.6 7.26 35.77 12.19 54.35 14.75l-0.01-23.3v-1.98c-14.81-2.31-29.32-6.32-43.43-12.02-2.77-1.12-5.53-2.31-8.27-3.56-2.13-0.97-4.26-1.97-6.38-3.02-0.58-0.29-1.16-0.59-1.73-0.89-7.39-3.76-14.66-8-21.79-12.7-2.53-1.67-5.04-3.42-7.54-5.2-2.49-1.78-4.96-3.6-7.41-5.49-8.8-6.79-17.36-14.31-25.63-22.54-26.22-26.08-42.71-52.5-49.14-63.71 6.35-11.11 22.59-37.14 48.59-63.15 13.42-13.42 27.59-24.97 42.34-34.56 2.67-1.74 5.36-3.41 8.07-5.02 2.71-1.6 5.43-3.15 8.17-4.62 1.89-1.01 3.78-2.01 5.68-2.96 5.74-2.87 11.56-5.44 17.44-7.73 2.82-1.1 5.65-2.12 8.5-3.08 2.85-0.97 5.72-1.86 8.6-2.7 7.86-2.27 15.82-4.03 23.88-5.3v-1.97-21.57-1.73c-10.35 1.43-20.57 3.6-30.64 6.5-2.88 0.83-5.75 1.71-8.6 2.66-2.84 0.94-5.67 1.94-8.49 3-7.39 2.79-14.69 5.95-21.87 9.55-0.37 0.2-0.75 0.41-1.13 0.6z"/>
	<path class="st0" d="m413.4 214.8c23.27 11.49 44.25 25.86 58.94 40.54l8.84 8.84 17.68-17.68-8.84-8.84c-16.54-16.54-40.94-33.64-69.94-47.4-2.71-1.29-5.47-2.54-8.26-3.77-2.74-1.2-5.52-2.38-8.33-3.52-7.62-3.08-15.49-5.91-23.55-8.43-2.85-0.89-5.73-1.74-8.63-2.55-2.88-0.8-5.79-1.56-8.71-2.28-10.1-2.48-20.43-4.43-30.91-5.75v25.23c7.97 1.12 16.01 2.66 24.07 4.61 2.9 0.7 5.81 1.46 8.71 2.27 2.88 0.8 5.76 1.65 8.64 2.55 7.91 2.48 15.8 5.36 23.62 8.61 1.01 0.42 2.03 0.83 3.03 1.26 1.79 0.77 3.58 1.55 5.35 2.36 2.79 1.27 5.55 2.59 8.29 3.95z"/>
	<path class="st0" d="m313.69 187.38v-25.04-9.01-9.01-11.14l-0.48-0.01c-4.1-0.11-8.15-0.16-12.02-0.16-3.86 0-7.81 0.08-11.75 0.25l-0.74 0.03v154.71h25.02c-0.01-29.1-0.01-57.09-0.02-82.58v-9.02c-0.01-3.04-0.01-6.06-0.01-9.02z"/>
</svg>
