<svg enable-background="new 0 0 177.16 185.98" version="1.1" viewBox="0 0 177.16 185.98" xml:space="preserve" xmlns="http://www.w3.org/2000/svg">
<path d="m170.45 45.72c-7.87-13.63-21.64-22.4-38.33-26.03-2.06-0.45-4.16-0.82-6.3-1.11-2.02-0.27-4.08-0.48-6.17-0.61-1.57-1.38-3.17-2.69-4.79-3.93-1.72-1.31-3.47-2.54-5.24-3.68-14.36-9.22-30.3-12.76-45.51-8.69-20.78 5.58-35.65 24.15-41.91 48.56-0.6 2.33-1.12 4.72-1.56 7.16-0.42 2.31-0.76 4.66-1.03 7.04-1.5 1.88-2.91 3.78-4.25 5.71-1.41 2.03-2.73 4.09-3.96 6.16-12.83 21.69-15.45 45.33-4.69 63.97 7.87 13.63 21.63 22.4 38.32 26.02 2.06 0.45 4.17 0.82 6.31 1.11 2.02 0.27 4.08 0.48 6.17 0.61 1.57 1.38 3.17 2.69 4.79 3.93 1.72 1.31 3.47 2.54 5.24 3.68 14.36 9.24 30.3 12.77 45.51 8.7 20.78-5.57 35.65-24.14 41.91-48.55 0.6-2.34 1.12-4.72 1.56-7.16 0.42-2.31 0.76-4.65 1.03-7.04 1.5-1.88 2.91-3.78 4.25-5.7 1.41-2.03 2.73-4.09 3.96-6.16 12.83-21.7 15.45-45.35 4.69-63.99zm-6.5 4.59c0 0.1 0 0.19-0.01 0.29 0 0.1-0.01 0.19-0.01 0.29-0.01 0.17-0.02 0.35-0.03 0.52-0.01 0.11-0.02 0.23-0.03 0.35-0.01 0.16-0.03 0.32-0.04 0.49-0.01 0.15-0.03 0.3-0.05 0.45 0 0.03-0.01 0.05-0.01 0.08l-0.06 0.45c-0.02 0.19-0.05 0.38-0.08 0.58-0.02 0.15-0.05 0.3-0.07 0.44-0.03 0.18-0.07 0.37-0.1 0.56-0.02 0.12-0.05 0.25-0.07 0.37-0.04 0.2-0.08 0.4-0.13 0.6-0.03 0.15-0.07 0.3-0.1 0.45-0.13 0.55-0.28 1.1-0.44 1.65-0.05 0.16-0.09 0.32-0.14 0.49 0 0.01 0 0.01-0.01 0.02-0.05 0.18-0.11 0.35-0.17 0.53-0.05 0.15-0.1 0.3-0.15 0.46-0.07 0.2-0.14 0.41-0.21 0.61-0.06 0.17-0.12 0.35-0.19 0.52-0.06 0.17-0.13 0.35-0.19 0.52-0.07 0.17-0.14 0.35-0.2 0.53-0.07 0.17-0.14 0.35-0.21 0.53-0.04 0.09-0.07 0.17-0.11 0.26-0.12 0.3-0.25 0.6-0.39 0.91-0.08 0.18-0.16 0.37-0.24 0.55s-0.17 0.37-0.26 0.56c0 0.01-0.01 0.01-0.01 0.02-0.08 0.18-0.17 0.36-0.25 0.53s-0.16 0.34-0.25 0.51l-0.3 0.6c-0.09 0.19-0.19 0.38-0.29 0.56l-0.3 0.57-0.18 0.33c-0.09 0.17-0.19 0.35-0.29 0.53-0.02 0.05-0.05 0.09-0.08 0.14-0.14 0.26-0.29 0.52-0.44 0.79-0.21 0.37-0.43 0.74-0.65 1.1-0.08 0.13-0.15 0.26-0.23 0.39-0.15 0.25-0.31 0.51-0.47 0.77-0.11 0.17-0.22 0.34-0.32 0.51-0.11 0.17-0.22 0.35-0.33 0.52-0.33 0.52-0.68 1.04-1.03 1.55-0.23 0.35-0.47 0.69-0.72 1.04-0.12 0.17-0.24 0.35-0.37 0.52-0.08-0.28-0.15-0.56-0.23-0.83-0.03-0.1-0.05-0.19-0.08-0.29-0.01-0.03-0.02-0.05-0.02-0.08-0.01-0.04-0.02-0.07-0.03-0.11-0.07-0.24-0.13-0.47-0.2-0.71-0.01-0.06-0.03-0.11-0.05-0.17-0.03-0.1-0.06-0.2-0.08-0.29-0.1-0.33-0.19-0.65-0.29-0.98-0.05-0.17-0.1-0.35-0.16-0.52-0.05-0.17-0.1-0.35-0.16-0.52-0.01-0.04-0.02-0.07-0.03-0.11-0.35-1.12-0.7-2.23-1.07-3.33-0.11-0.34-0.23-0.68-0.35-1.02-0.01-0.02-0.02-0.05-0.03-0.08-0.14-0.39-0.27-0.78-0.41-1.17-0.1-0.29-0.2-0.57-0.31-0.86-0.12-0.34-0.25-0.67-0.37-1-0.1-0.28-0.21-0.55-0.31-0.83-0.23-0.59-0.45-1.17-0.69-1.76-0.08-0.19-0.15-0.38-0.23-0.56-0.02-0.05-0.04-0.09-0.06-0.14-0.09-0.23-0.18-0.45-0.27-0.67-0.13-0.33-0.27-0.65-0.41-0.98-0.1-0.24-0.2-0.49-0.31-0.73-0.07-0.16-0.13-0.31-0.2-0.46-0.12-0.28-0.24-0.55-0.36-0.82-0.13-0.29-0.26-0.59-0.39-0.88s-0.26-0.57-0.39-0.85c-0.19-0.41-0.38-0.82-0.57-1.23-0.12-0.25-0.24-0.5-0.36-0.75-0.15-0.32-0.31-0.64-0.47-0.96-0.14-0.29-0.29-0.58-0.43-0.87l-0.03-0.06c-0.15-0.3-0.3-0.59-0.45-0.89-0.02-0.03-0.03-0.06-0.05-0.09-0.14-0.27-0.28-0.55-0.43-0.82-0.14-0.27-0.29-0.55-0.43-0.82-0.67-1.27-1.37-2.51-2.08-3.73-0.09-0.16-0.19-0.32-0.28-0.49-0.08-0.13-0.16-0.27-0.24-0.4-0.28-0.48-0.57-0.95-0.85-1.42-0.1-0.17-0.21-0.34-0.31-0.51-0.04-0.06-0.07-0.12-0.11-0.18-0.11-0.18-0.22-0.35-0.33-0.53-0.85-1.35-1.72-2.68-2.61-3.98l-4.98 0.28c-9 0.5-19.57 2.79-30.63 6.64 0.83 1.52 1.65 3.07 2.46 4.66 0.17 0.35 0.35 0.69 0.52 1.04 0.09 0.18 0.18 0.37 0.27 0.55 0.55 1.12 1.1 2.26 1.63 3.42 0.13 0.27 0.25 0.55 0.38 0.82 0.4 0.86 0.79 1.73 1.17 2.61 0.11 0.25 0.22 0.5 0.33 0.75 0.57 1.32 1.14 2.67 1.69 4.03 0.18 0.44 0.36 0.88 0.53 1.33 0.54 1.36 1.07 2.73 1.58 4.12 0.17 0.44 0.33 0.89 0.49 1.34 0.36 1 0.72 2 1.07 3.02 0.12 0.36 0.25 0.72 0.37 1.08 0.01 0.02 0.02 0.04 0.02 0.06 0.15 0.44 0.3 0.88 0.44 1.32 0.13 0.39 0.26 0.78 0.38 1.16 0.05 0.14 0.09 0.27 0.13 0.41l0.39 1.23 0.03 0.09c0.08 0.26 0.17 0.53 0.25 0.79 0.06 0.19 0.12 0.37 0.17 0.56 0.12 0.38 0.23 0.76 0.35 1.13l0.54 1.83c0.11 0.37 0.22 0.74 0.32 1.12 0.29 1.02 0.58 2.05 0.85 3.09 0.36 1.36 0.71 2.71 1.04 4.06 0.09 0.36 0.18 0.72 0.26 1.08 0 0.01 0.01 0.02 0.01 0.03 0.06 0.26 0.12 0.51 0.18 0.76 0.07 0.27 0.13 0.54 0.19 0.82 0.1 0.43 0.2 0.86 0.29 1.28 0.26 1.15 0.51 2.3 0.75 3.45 0.11 0.51 0.21 1.02 0.31 1.53 0.05 0.24 0.1 0.47 0.14 0.71 0.11 0.54 0.21 1.09 0.31 1.63 0.09 0.46 0.17 0.93 0.26 1.39 0.02 0.13 0.05 0.26 0.07 0.38 0.02 0.13 0.05 0.26 0.07 0.39 0.06 0.36 0.13 0.71 0.19 1.07 0.01 0.07 0.02 0.14 0.04 0.21 0.01 0.03 0.01 0.07 0.02 0.1 0.05 0.27 0.09 0.54 0.13 0.8 0 0.01 0.01 0.03 0.01 0.05 0.02 0.13 0.04 0.25 0.06 0.38 0.01 0.05 0.02 0.11 0.03 0.16 0.05 0.33 0.11 0.65 0.16 0.98 2.64 16.84 2.78 32.37 0.67 44.92-0.05 0.31-0.11 0.62-0.16 0.93-0.03 0.19-0.07 0.39-0.11 0.58-0.04 0.23-0.09 0.46-0.13 0.69-0.06 0.31-0.12 0.61-0.18 0.91-0.12 0.6-0.25 1.19-0.39 1.77-0.05 0.22-0.1 0.45-0.16 0.67-0.04 0.18-0.09 0.37-0.13 0.55l-0.12 0.48c-0.04 0.17-0.09 0.34-0.13 0.51-0.05 0.17-0.09 0.34-0.14 0.51-0.05 0.16-0.09 0.32-0.14 0.49-0.02 0.06-0.03 0.12-0.05 0.18-0.05 0.16-0.09 0.32-0.14 0.47-0.01 0.04-0.02 0.07-0.03 0.11-0.05 0.18-0.11 0.37-0.17 0.55-0.06 0.21-0.13 0.41-0.19 0.62-0.11 0.35-0.22 0.7-0.34 1.04-0.05 0.14-0.1 0.29-0.15 0.43-0.06 0.18-0.12 0.35-0.18 0.52-0.11 0.32-0.23 0.64-0.35 0.96-0.06 0.16-0.12 0.32-0.18 0.47s-0.11 0.3-0.17 0.44c-0.19 0.47-0.38 0.94-0.58 1.39-0.06 0.15-0.13 0.3-0.2 0.44l-0.3 0.66c-0.1 0.22-0.2 0.43-0.31 0.64-0.06 0.13-0.13 0.26-0.19 0.38l-0.03 0.06c-0.07 0.13-0.13 0.26-0.2 0.4-0.07 0.13-0.14 0.26-0.21 0.4-0.16 0.29-0.32 0.59-0.48 0.87-0.07 0.11-0.13 0.23-0.2 0.34-0.07 0.13-0.15 0.26-0.23 0.39-0.15 0.26-0.31 0.51-0.47 0.76-0.34 0.53-0.69 1.04-1.04 1.53-0.08 0.11-0.16 0.23-0.25 0.34-0.02 0.02-0.04 0.05-0.05 0.07-0.09 0.12-0.18 0.24-0.27 0.36-0.01 0.01-0.02 0.03-0.03 0.04-0.11 0.14-0.21 0.27-0.32 0.41s-0.22 0.27-0.34 0.41c-0.11 0.13-0.23 0.27-0.34 0.4l-0.33 0.36c-0.03 0.03-0.06 0.06-0.09 0.1-0.21 0.23-0.43 0.45-0.65 0.67-0.12 0.12-0.24 0.24-0.36 0.35-0.1 0.1-0.2 0.2-0.31 0.29-0.17 0.16-0.34 0.31-0.52 0.46-0.1 0.08-0.2 0.17-0.29 0.25-0.13 0.11-0.26 0.21-0.38 0.31-0.13 0.1-0.25 0.2-0.38 0.29l-0.01 0.01c-0.13 0.1-0.26 0.2-0.39 0.29s-0.26 0.19-0.4 0.27c-0.11 0.08-0.22 0.15-0.33 0.22-0.18 0.12-0.36 0.23-0.55 0.34-0.11 0.07-0.23 0.14-0.35 0.2-0.13 0.08-0.27 0.15-0.4 0.22-0.01 0-0.02 0.01-0.03 0.01-0.14 0.07-0.27 0.14-0.41 0.21h-0.01c-0.14 0.07-0.28 0.14-0.43 0.2h-0.01c-0.14 0.06-0.28 0.13-0.42 0.18-0.01 0.01-0.01 0.01-0.02 0.01-0.13 0.06-0.27 0.11-0.4 0.17-0.32 0.13-0.64 0.24-0.97 0.35-0.11 0.04-0.23 0.07-0.34 0.11-0.03 0.01-0.06 0.02-0.09 0.03l-0.42 0.12c-1.58 0.42-3.19 0.61-4.83 0.57-0.08 0-0.16 0-0.24-0.01-0.05 0-0.11 0-0.16-0.01h-0.06c-0.09 0-0.17-0.01-0.26-0.01-0.26-0.01-0.52-0.04-0.77-0.06-0.12-0.01-0.24-0.03-0.36-0.04-0.11-0.01-0.23-0.03-0.35-0.05-0.15-0.02-0.3-0.04-0.44-0.07-0.12-0.02-0.24-0.04-0.35-0.06-0.12-0.02-0.24-0.05-0.37-0.07-0.48-0.1-0.96-0.21-1.45-0.34-0.08-0.02-0.16-0.05-0.24-0.07-0.21-0.06-0.43-0.12-0.64-0.19-0.11-0.03-0.22-0.07-0.33-0.11-0.28-0.09-0.57-0.19-0.85-0.3-0.1-0.04-0.19-0.07-0.29-0.11l-0.54-0.21c-0.09-0.04-0.18-0.07-0.27-0.11-0.54-0.23-1.08-0.47-1.62-0.74-0.13-0.06-0.26-0.13-0.39-0.2-0.53-0.27-1.05-0.55-1.58-0.86-0.13-0.08-0.26-0.15-0.39-0.23-0.45-0.26-0.89-0.54-1.34-0.83-0.18-0.12-0.36-0.24-0.55-0.36-0.08-0.06-0.17-0.11-0.26-0.17-0.3-0.2-0.59-0.41-0.89-0.62-0.1-0.07-0.19-0.14-0.29-0.21-0.29-0.21-0.57-0.42-0.86-0.64-0.1-0.07-0.19-0.15-0.29-0.22l-0.57-0.45c-0.1-0.08-0.19-0.15-0.29-0.23s-0.19-0.16-0.29-0.23c-0.11-0.09-0.22-0.18-0.33-0.28-0.1-0.08-0.19-0.16-0.29-0.24-0.11-0.09-0.21-0.18-0.32-0.27l-0.45-0.39c-0.16-0.15-0.33-0.29-0.49-0.44-0.14-0.13-0.29-0.26-0.43-0.4-0.48-0.44-0.96-0.9-1.44-1.37l-0.41-0.41c-0.13-0.12-0.25-0.25-0.37-0.38-0.83-0.84-1.66-1.73-2.49-2.65 0.25-0.02 0.5-0.05 0.74-0.08 0.13-0.01 0.26-0.03 0.39-0.04 0.37-0.04 0.73-0.08 1.1-0.13h0.04c0.06-0.01 0.13-0.02 0.19-0.02 0.03 0 0.06-0.01 0.09-0.01 0.25-0.03 0.5-0.06 0.75-0.1h0.03c0.02 0 0.03 0 0.05-0.01 0.37-0.05 0.73-0.1 1.1-0.15 0.02 0 0.04-0.01 0.06-0.01 0.3-0.04 0.6-0.09 0.9-0.14 0.11-0.02 0.23-0.03 0.35-0.05 0.31-0.05 0.62-0.1 0.94-0.15 0.34-0.06 0.68-0.11 1.03-0.18l0.18-0.03c0.1-0.02 0.2-0.03 0.3-0.05 0.16-0.03 0.31-0.06 0.47-0.08 0.07-0.01 0.15-0.03 0.22-0.04 0.27-0.05 0.55-0.1 0.82-0.16 0.08-0.02 0.17-0.03 0.25-0.05 0.14-0.03 0.29-0.06 0.43-0.09s0.29-0.06 0.43-0.09 0.29-0.06 0.44-0.09 0.29-0.06 0.44-0.09c0.09-0.02 0.19-0.04 0.28-0.06 0.26-0.06 0.52-0.11 0.79-0.17 0.32-0.07 0.65-0.15 0.97-0.22s0.63-0.15 0.95-0.22c0.02 0 0.03-0.01 0.05-0.01 0.32-0.08 0.64-0.16 0.95-0.23 0.32-0.08 0.65-0.16 0.98-0.25 0.32-0.08 0.64-0.17 0.96-0.25 0.01 0 0.03-0.01 0.04-0.01 0.32-0.08 0.63-0.17 0.95-0.26 0.65-0.18 1.3-0.37 1.95-0.56 0.28-0.08 0.55-0.16 0.83-0.25 0.03-0.01 0.06-0.02 0.09-0.03 0.01 0 0.02-0.01 0.04-0.01 0.33-0.1 0.67-0.2 1-0.31 0.29-0.09 0.59-0.19 0.88-0.28 0.03-0.01 0.07-0.02 0.1-0.03 0.33-0.11 0.65-0.21 0.98-0.32s0.65-0.22 0.98-0.33 0.65-0.22 0.98-0.34c0.01 0 0.02-0.01 0.02-0.01 0.32-0.11 0.64-0.23 0.96-0.34 0.33-0.12 0.65-0.24 0.98-0.36 0.26-0.1 0.53-0.2 0.79-0.29 0.21-0.08 0.43-0.16 0.64-0.24s0.43-0.16 0.64-0.25c0.27-0.11 0.54-0.21 0.82-0.32 0.27-0.11 0.54-0.21 0.81-0.32l0.6-0.24c0.18-0.07 0.36-0.15 0.54-0.22 0.17-0.07 0.33-0.14 0.5-0.21 0.01-0.01 0.02-0.01 0.03-0.01 0.18-0.08 0.35-0.15 0.53-0.23 0.31-0.13 0.62-0.26 0.92-0.4 0.02-0.01 0.03-0.01 0.05-0.02 0.32-0.14 0.63-0.28 0.95-0.42 0.26-0.12 0.52-0.23 0.79-0.35 0.3-0.14 0.6-0.27 0.9-0.41 0.21-0.1 0.42-0.2 0.63-0.29 0.2-0.09 0.4-0.19 0.6-0.28 0.3-0.14 0.59-0.28 0.89-0.42 0.03-0.01 0.06-0.03 0.08-0.04l0.95-5.67c1.87-11.11 1.81-24.48-0.15-38.88-0.45 0.3-0.91 0.61-1.37 0.9-0.47 0.31-0.95 0.62-1.43 0.93-0.91 0.59-1.83 1.17-2.76 1.75l-0.63 0.39-0.63 0.39c-0.15 0.09-0.29 0.18-0.44 0.27-0.28 0.17-0.55 0.34-0.83 0.5-0.19 0.12-0.38 0.23-0.57 0.34-0.23 0.14-0.47 0.28-0.71 0.42-0.26 0.15-0.51 0.3-0.77 0.45-0.4 0.24-0.81 0.47-1.21 0.71-0.45 0.26-0.89 0.51-1.34 0.77-0.34 0.19-0.67 0.38-1.01 0.57-0.16 0.09-0.31 0.17-0.47 0.26-0.37 0.2-0.73 0.41-1.1 0.61-0.01 0-0.01 0.01-0.02 0.01-0.44 0.24-0.87 0.48-1.31 0.71-0.44 0.24-0.87 0.47-1.31 0.7-0.42 0.23-0.85 0.45-1.27 0.67-0.23 0.12-0.47 0.24-0.7 0.37-0.22 0.11-0.43 0.22-0.65 0.33-0.41 0.21-0.83 0.42-1.24 0.63-1.33 0.67-2.66 1.32-3.99 1.95-0.22 0.11-0.43 0.21-0.65 0.31-1.52 0.72-3.03 1.41-4.54 2.08-0.4 0.18-0.8 0.35-1.2 0.52-0.46 0.2-0.92 0.4-1.38 0.59-0.39 0.17-0.78 0.33-1.17 0.49-1.38 0.57-2.75 1.13-4.12 1.65l-0.45 0.18c-0.25 0.1-0.5 0.19-0.76 0.29-0.36 0.14-0.72 0.27-1.08 0.41-0.5 0.19-0.99 0.37-1.49 0.55-0.37 0.14-0.74 0.27-1.1 0.4-1.03 0.36-2.05 0.71-3.06 1.05-0.2 0.07-0.4 0.13-0.6 0.2-0.54 0.18-1.08 0.35-1.61 0.52-0.31 0.1-0.62 0.19-0.92 0.29-0.18 0.06-0.36 0.11-0.54 0.17-0.24 0.08-0.49 0.15-0.73 0.22-0.38 0.11-0.75 0.22-1.12 0.33-0.01 0.01-0.03 0.01-0.04 0.01-0.1 0.03-0.19 0.06-0.29 0.08-0.22 0.06-0.43 0.12-0.65 0.18-0.08 0.03-0.17 0.05-0.25 0.07-0.22 0.06-0.44 0.13-0.66 0.19-0.15 0.04-0.31 0.08-0.46 0.13-0.15 0.04-0.31 0.08-0.46 0.12-0.3 0.08-0.61 0.17-0.91 0.24-0.09 0.02-0.19 0.05-0.28 0.08-0.02 0.01-0.05 0.01-0.07 0.02-0.01 0-0.03 0.01-0.04 0.01s-0.01 0-0.02 0.01c-0.01 0-0.03 0.01-0.04 0.01-0.15 0.04-0.3 0.08-0.45 0.12-0.26 0.07-0.51 0.13-0.77 0.19-0.21 0.05-0.43 0.11-0.64 0.16-0.23 0.06-0.47 0.11-0.7 0.17s-0.47 0.11-0.7 0.17c-6.84 1.58-13.27 2.49-19.12 2.7-0.85 0.03-1.69 0.05-2.52 0.05h-0.4-0.4c-0.33 0-0.66-0.01-0.99-0.02h-0.14c-0.05 0-0.1 0-0.16-0.01-0.19-0.01-0.38-0.01-0.58-0.02-0.05 0-0.1 0-0.15-0.01l-0.63-0.03c-0.18-0.01-0.37-0.02-0.55-0.03h-0.08c-0.35-0.02-0.69-0.05-1.03-0.08-0.2-0.02-0.39-0.03-0.59-0.05-0.13-0.01-0.25-0.02-0.37-0.04-0.07-0.01-0.14-0.01-0.21-0.02h-0.01l-0.54-0.06c-0.2-0.02-0.4-0.05-0.59-0.07-0.13-0.02-0.26-0.03-0.39-0.05-0.56-0.08-1.11-0.16-1.65-0.26-0.17-0.03-0.33-0.06-0.49-0.09-0.01 0-0.03-0.01-0.04-0.01-0.11-0.02-0.22-0.04-0.32-0.06-0.02 0-0.04-0.01-0.06-0.01-0.08-0.01-0.16-0.03-0.23-0.05-0.21-0.04-0.43-0.09-0.64-0.14-0.08-0.01-0.15-0.03-0.22-0.05-0.16-0.04-0.33-0.08-0.49-0.11l-0.48-0.12c-0.14-0.04-0.29-0.07-0.43-0.11-0.08-0.02-0.16-0.04-0.23-0.06-0.11-0.03-0.21-0.06-0.31-0.09-0.16-0.05-0.31-0.09-0.47-0.14-0.01 0-0.01 0-0.02-0.01-0.14-0.04-0.27-0.08-0.41-0.13-0.14-0.04-0.28-0.09-0.42-0.14-0.01 0-0.02-0.01-0.03-0.01-0.18-0.06-0.36-0.12-0.53-0.18-0.15-0.05-0.29-0.1-0.43-0.16-0.1-0.03-0.19-0.07-0.29-0.11-0.31-0.12-0.61-0.24-0.91-0.37-0.11-0.05-0.23-0.1-0.34-0.14-0.16-0.07-0.32-0.14-0.49-0.22-0.16-0.07-0.32-0.15-0.48-0.23-0.1-0.05-0.21-0.1-0.31-0.15-0.09-0.05-0.19-0.1-0.28-0.14h-0.01c-0.08-0.04-0.15-0.08-0.23-0.12-0.09-0.05-0.18-0.1-0.27-0.14-0.12-0.07-0.25-0.14-0.37-0.21-0.26-0.15-0.52-0.3-0.77-0.46-0.08-0.05-0.17-0.11-0.25-0.16-0.05-0.04-0.11-0.07-0.17-0.11-0.08-0.05-0.15-0.1-0.22-0.15-0.22-0.15-0.43-0.3-0.64-0.45l-0.27-0.21c-0.08-0.06-0.15-0.11-0.22-0.17-0.11-0.09-0.22-0.17-0.33-0.26-0.04-0.04-0.09-0.07-0.13-0.11-0.1-0.08-0.19-0.16-0.29-0.24-0.01-0.01-0.02-0.01-0.02-0.02-0.1-0.08-0.2-0.17-0.29-0.26-0.14-0.13-0.28-0.26-0.42-0.4-0.09-0.08-0.17-0.17-0.26-0.25-0.1-0.1-0.19-0.19-0.28-0.29-0.16-0.17-0.31-0.34-0.46-0.51-0.07-0.08-0.13-0.15-0.2-0.23-0.06-0.07-0.11-0.13-0.17-0.2-0.04-0.05-0.08-0.1-0.13-0.16-0.01-0.01-0.01-0.02-0.02-0.02-0.05-0.07-0.11-0.13-0.16-0.2s-0.11-0.14-0.16-0.21c-0.08-0.1-0.16-0.21-0.23-0.32l-0.01-0.01c-0.05-0.07-0.1-0.13-0.14-0.2-0.04-0.06-0.08-0.12-0.13-0.18-0.06-0.08-0.11-0.17-0.17-0.25-0.15-0.23-0.29-0.46-0.43-0.7-1.79-3.1-2.53-6.67-2.32-10.59 0-0.05 0.01-0.1 0.01-0.14v-0.06l0.01-0.07c0.01-0.13 0.02-0.27 0.03-0.4v-0.05-0.04c0.01-0.07 0.01-0.14 0.02-0.21 0.01-0.12 0.02-0.25 0.04-0.37 0.03-0.3 0.07-0.6 0.11-0.9l0.06-0.39 0.06-0.36c0.01-0.1 0.03-0.2 0.05-0.3 0-0.02 0.01-0.04 0.01-0.06 0.03-0.16 0.06-0.32 0.09-0.49 0.04-0.18 0.07-0.37 0.11-0.55s0.08-0.37 0.12-0.55c0.04-0.16 0.08-0.32 0.11-0.48 0.01-0.02 0.01-0.05 0.02-0.08 0.03-0.14 0.07-0.28 0.11-0.41 0.08-0.28 0.15-0.57 0.24-0.85 0.03-0.12 0.07-0.23 0.1-0.35 0.04-0.12 0.07-0.24 0.11-0.35 0.21-0.66 0.43-1.33 0.68-2.01 0.04-0.11 0.08-0.21 0.12-0.32 0.06-0.16 0.12-0.33 0.19-0.49 0.06-0.16 0.13-0.32 0.19-0.49 0.05-0.11 0.09-0.23 0.14-0.34 0.05-0.12 0.1-0.23 0.15-0.35 0.05-0.11 0.1-0.23 0.15-0.35 0.11-0.25 0.21-0.49 0.32-0.74 0.05-0.12 0.11-0.24 0.16-0.36 0.06-0.13 0.12-0.26 0.18-0.38 0.05-0.12 0.11-0.23 0.17-0.35s0.11-0.23 0.17-0.35c0.09-0.18 0.17-0.35 0.26-0.53 0.11-0.21 0.21-0.43 0.32-0.64 0.06-0.13 0.13-0.25 0.2-0.38s0.13-0.25 0.2-0.38c0.1-0.19 0.2-0.38 0.31-0.57 0.1-0.19 0.21-0.38 0.31-0.57 0.07-0.13 0.14-0.26 0.21-0.38 0.11-0.19 0.22-0.38 0.33-0.57 0.22-0.38 0.45-0.77 0.68-1.15 0.12-0.19 0.23-0.38 0.35-0.58l0.24-0.39c0.16-0.26 0.32-0.52 0.49-0.77 0.17-0.26 0.33-0.52 0.5-0.78l0.78-1.17c0.1-0.15 0.2-0.29 0.3-0.44 0.71-1.03 1.46-2.06 2.24-3.09 1.06-1.4 2.18-2.81 3.37-4.22 0.08 0.85 0.17 1.71 0.27 2.56 0.01 0.05 0.01 0.1 0.02 0.15 0.04 0.35 0.08 0.7 0.13 1.04 0 0.04 0.01 0.07 0.01 0.11 0.03 0.24 0.06 0.48 0.09 0.73 0.01 0.05 0.01 0.11 0.02 0.17 0.02 0.12 0.03 0.25 0.05 0.38v0.01c0.03 0.21 0.06 0.41 0.09 0.62 0.04 0.32 0.09 0.64 0.14 0.95 0.05 0.38 0.11 0.76 0.17 1.14 0.04 0.24 0.07 0.47 0.11 0.71 0.02 0.14 0.04 0.27 0.07 0.41 0.06 0.36 0.12 0.73 0.19 1.09 0.08 0.48 0.17 0.96 0.26 1.44 0.14 0.72 0.28 1.45 0.42 2.17 0.1 0.48 0.2 0.97 0.3 1.45 0.05 0.24 0.1 0.48 0.16 0.73 0.04 0.17 0.07 0.34 0.11 0.5l0.12 0.54c0.05 0.23 0.1 0.45 0.16 0.68 0.05 0.23 0.11 0.46 0.16 0.68 0.05 0.23 0.11 0.46 0.17 0.68 0.07 0.27 0.13 0.54 0.2 0.8 0.05 0.19 0.1 0.38 0.14 0.56 0.12 0.46 0.24 0.91 0.36 1.37 0.07 0.26 0.14 0.51 0.21 0.77 0.07 0.24 0.13 0.47 0.2 0.71 0.22 0.78 0.44 1.56 0.68 2.33 0.05 0.18 0.11 0.36 0.16 0.54l0.24 0.78c0.11 0.34 0.21 0.68 0.32 1.01l0.3 0.93c0.23 0.7 0.46 1.39 0.7 2.07 0.1 0.28 0.19 0.55 0.29 0.83 0.15 0.41 0.29 0.83 0.44 1.24 0.11 0.3 0.22 0.59 0.33 0.89 0.13 0.35 0.26 0.69 0.39 1.04 0.07 0.2 0.15 0.39 0.23 0.59 0.13 0.35 0.27 0.69 0.4 1.03 0.01 0.02 0.02 0.05 0.03 0.07 0.18 0.46 0.37 0.92 0.56 1.38 0.01 0.02 0.01 0.03 0.02 0.05 0.19 0.46 0.38 0.92 0.58 1.37 0.19 0.44 0.38 0.89 0.57 1.32 0.03 0.07 0.07 0.15 0.1 0.22 0.17 0.39 0.35 0.78 0.52 1.17 0.01 0.03 0.02 0.05 0.04 0.08 0.18 0.39 0.36 0.79 0.54 1.18 0.04 0.09 0.09 0.18 0.13 0.28 0.2 0.41 0.39 0.83 0.59 1.24l3.62-0.13c4.97-0.17 10.43-0.91 16.26-2.19-0.11-0.25-0.21-0.5-0.32-0.76-0.11-0.25-0.21-0.5-0.31-0.76-0.11-0.26-0.21-0.51-0.31-0.77s-0.21-0.51-0.31-0.77-0.21-0.51-0.31-0.77c-0.13-0.33-0.26-0.65-0.39-0.98-0.29-0.74-0.57-1.47-0.85-2.22-0.1-0.26-0.19-0.51-0.29-0.77-0.5-1.34-0.98-2.69-1.46-4.06l-0.33-0.96c-0.19-0.56-0.38-1.12-0.57-1.69-0.13-0.39-0.26-0.79-0.39-1.19-0.02-0.07-0.05-0.14-0.07-0.21-0.14-0.43-0.28-0.86-0.41-1.29-0.01-0.02-0.02-0.05-0.02-0.07l-0.21-0.66c-0.1-0.31-0.2-0.62-0.29-0.93-0.11-0.37-0.23-0.74-0.34-1.11-0.06-0.19-0.12-0.39-0.17-0.58-0.08-0.25-0.15-0.49-0.22-0.74-0.14-0.46-0.27-0.92-0.4-1.38-0.11-0.37-0.21-0.74-0.31-1.11l-0.09-0.33c-0.03-0.12-0.07-0.24-0.1-0.37-0.14-0.51-0.28-1.03-0.42-1.54-0.08-0.32-0.17-0.63-0.25-0.95-0.01-0.05-0.02-0.1-0.04-0.14-0.09-0.34-0.18-0.68-0.26-1.02-0.02-0.07-0.04-0.14-0.05-0.21-0.08-0.32-0.16-0.64-0.24-0.95-0.08-0.3-0.15-0.6-0.23-0.9-0.02-0.07-0.04-0.14-0.05-0.22-0.07-0.29-0.14-0.58-0.21-0.88-0.1-0.41-0.2-0.83-0.3-1.24-0.17-0.73-0.34-1.45-0.5-2.17-0.05-0.22-0.1-0.43-0.14-0.65l-0.18-0.84c0-0.02-0.01-0.03-0.01-0.05-0.09-0.4-0.17-0.79-0.25-1.19-0.06-0.3-0.12-0.6-0.18-0.89-0.05-0.22-0.09-0.44-0.13-0.67l-0.15-0.75c-0.04-0.18-0.07-0.36-0.11-0.54-0.08-0.43-0.17-0.86-0.25-1.29-0.04-0.2-0.08-0.4-0.11-0.6-0.05-0.24-0.09-0.49-0.13-0.73l-0.03-0.15c-0.01-0.06-0.02-0.12-0.03-0.17-0.08-0.46-0.16-0.92-0.24-1.39-0.06-0.38-0.13-0.76-0.19-1.13-0.04-0.21-0.07-0.42-0.1-0.63-0.01-0.08-0.02-0.15-0.04-0.22-0.06-0.35-0.11-0.69-0.16-1.03-0.06-0.39-0.12-0.78-0.18-1.18-0.03-0.23-0.07-0.45-0.1-0.68-0.05-0.38-0.11-0.76-0.16-1.14-0.02-0.12-0.03-0.24-0.05-0.36-0.04-0.26-0.07-0.51-0.1-0.77-0.04-0.31-0.08-0.62-0.12-0.92-0.03-0.21-0.05-0.43-0.08-0.64-0.03-0.25-0.06-0.49-0.09-0.74-0.04-0.36-0.08-0.71-0.12-1.07l-0.09-0.84c0-0.02-0.01-0.05-0.01-0.07-0.05-0.47-0.1-0.95-0.15-1.42-0.02-0.15-0.03-0.3-0.05-0.45-0.01-0.09-0.02-0.19-0.03-0.28l-0.03-0.36c-0.02-0.17-0.03-0.35-0.05-0.52-0.02-0.2-0.04-0.41-0.05-0.61-0.77-8.77-0.81-17.03-0.16-24.51l0.06-0.69c0.02-0.23 0.04-0.45 0.06-0.67 0.05-0.46 0.09-0.91 0.14-1.37 0.02-0.19 0.04-0.38 0.07-0.57 0.02-0.19 0.05-0.39 0.07-0.58 0.02-0.21 0.05-0.41 0.08-0.62 0.04-0.29 0.08-0.59 0.12-0.88 0.03-0.25 0.07-0.49 0.11-0.73 0.03-0.22 0.07-0.44 0.1-0.66 0.01-0.06 0.02-0.11 0.03-0.17 0.03-0.21 0.06-0.41 0.1-0.62 0.08-0.5 0.17-0.99 0.25-1.48l0.09-0.51c0.06-0.35 0.13-0.7 0.2-1.04 0.03-0.16 0.06-0.32 0.1-0.47 0.11-0.51 0.21-1.02 0.33-1.52 0.04-0.17 0.08-0.33 0.11-0.5 0-0.01 0.01-0.02 0.01-0.02 0.05-0.22 0.11-0.44 0.16-0.65 0.05-0.22 0.11-0.44 0.16-0.65 0.11-0.44 0.22-0.86 0.34-1.29 0.05-0.16 0.09-0.32 0.14-0.49 0.08-0.29 0.17-0.59 0.25-0.87 0.05-0.17 0.11-0.35 0.16-0.52 0.19-0.62 0.38-1.22 0.59-1.81 0.05-0.15 0.1-0.29 0.15-0.44 0.1-0.29 0.2-0.58 0.31-0.86 0.06-0.15 0.11-0.3 0.17-0.45 0.14-0.38 0.29-0.76 0.44-1.13 0.07-0.17 0.14-0.34 0.21-0.5 0.01-0.03 0.02-0.05 0.03-0.08 0.06-0.14 0.12-0.27 0.17-0.41 0.25-0.57 0.51-1.13 0.77-1.68 0.07-0.14 0.14-0.29 0.21-0.43 0.02-0.05 0.04-0.09 0.07-0.13 0.08-0.15 0.15-0.3 0.23-0.45 0.11-0.22 0.23-0.44 0.35-0.65 0.06-0.11 0.12-0.22 0.18-0.32 0.09-0.16 0.18-0.32 0.27-0.47 0.02-0.03 0.03-0.06 0.05-0.09 0.08-0.13 0.15-0.25 0.23-0.38 0.09-0.15 0.19-0.31 0.28-0.46 0-0.01 0.01-0.01 0.01-0.02 0.17-0.28 0.35-0.56 0.53-0.83 0.01-0.02 0.02-0.03 0.03-0.05 0.1-0.14 0.19-0.28 0.29-0.42 0.01-0.02 0.03-0.04 0.04-0.06 0.18-0.26 0.37-0.52 0.56-0.77 0.1-0.14 0.21-0.28 0.31-0.41 0.09-0.11 0.17-0.22 0.26-0.33 0.02-0.03 0.05-0.06 0.07-0.09l0.3-0.36c0.01-0.01 0.02-0.02 0.02-0.03 0.1-0.12 0.2-0.24 0.3-0.35s0.2-0.23 0.3-0.34l0.03-0.03c0.09-0.1 0.19-0.2 0.28-0.3 0.13-0.14 0.26-0.27 0.38-0.4 0.18-0.19 0.36-0.37 0.55-0.54 0.29-0.27 0.58-0.54 0.87-0.79 0.1-0.09 0.2-0.17 0.31-0.26s0.23-0.19 0.34-0.27c0.02-0.01 0.03-0.02 0.05-0.04 0.11-0.09 0.22-0.17 0.33-0.25 0.14-0.11 0.29-0.21 0.43-0.32 0.11-0.07 0.21-0.15 0.32-0.22l0.27-0.18c0.07-0.05 0.14-0.09 0.21-0.13 0.18-0.12 0.37-0.23 0.55-0.34 0.05-0.03 0.11-0.06 0.16-0.09 0.27-0.15 0.54-0.3 0.82-0.44 0.09-0.04 0.17-0.09 0.26-0.13 0.3-0.15 0.61-0.28 0.92-0.41 0.12-0.05 0.24-0.1 0.36-0.14 0.13-0.05 0.25-0.1 0.38-0.14 0.02-0.01 0.03-0.01 0.05-0.02 0.14-0.05 0.27-0.1 0.41-0.14 0.02-0.01 0.04-0.02 0.06-0.02 0.11-0.04 0.22-0.07 0.34-0.11 0.15-0.05 0.3-0.09 0.45-0.13 1.57-0.42 3.17-0.61 4.8-0.57 0.11 0 0.23 0.01 0.34 0.01s0.23 0.01 0.34 0.02c0.09 0.01 0.18 0.01 0.26 0.02 0.09 0.01 0.18 0.01 0.27 0.02 0.32 0.03 0.63 0.06 0.95 0.11 0.12 0.01 0.24 0.03 0.36 0.05 0.14 0.02 0.28 0.05 0.42 0.07 0.1 0.02 0.21 0.04 0.31 0.06l0.3 0.06c0.15 0.03 0.31 0.06 0.46 0.1 0.11 0.03 0.23 0.05 0.34 0.08 0.25 0.06 0.49 0.13 0.74 0.2 0.12 0.03 0.25 0.07 0.37 0.11 0.11 0.03 0.22 0.07 0.33 0.1 0.01 0.01 0.03 0.01 0.04 0.01 0.12 0.04 0.25 0.08 0.37 0.12 0.15 0.05 0.3 0.1 0.45 0.16 0.1 0.03 0.2 0.07 0.3 0.11l0.48 0.18c0.21 0.08 0.42 0.17 0.64 0.26 0.25 0.1 0.5 0.21 0.75 0.33 0.13 0.06 0.25 0.11 0.38 0.17s0.25 0.12 0.38 0.18c0.63 0.3 1.25 0.64 1.89 1 0.23 0.13 0.45 0.26 0.68 0.39 0.03 0.02 0.05 0.03 0.08 0.05 0.11 0.07 0.22 0.14 0.34 0.2l0.81 0.51c0.12 0.08 0.25 0.16 0.37 0.24 0.15 0.1 0.29 0.2 0.44 0.3 0.11 0.07 0.21 0.15 0.32 0.22 0.11 0.08 0.22 0.15 0.32 0.23 0.27 0.19 0.54 0.39 0.81 0.59l0.24 0.18c0.14 0.11 0.28 0.21 0.41 0.32 0.29 0.22 0.58 0.45 0.86 0.68 0.38 0.31 0.76 0.62 1.13 0.94 0.11 0.09 0.22 0.19 0.33 0.29 0.64 0.56 1.28 1.13 1.91 1.74 1.01 0.96 2.03 1.98 3.03 3.06-0.77 0.21-1.54 0.43-2.31 0.66-0.24 0.07-0.47 0.14-0.71 0.21-0.34 0.1-0.67 0.2-1.01 0.31-1.31 0.41-2.62 0.83-3.93 1.29-7.52 2.61-15.04 6.03-22.39 10.28-3.49 2.01-6.83 4.15-10.03 6.4l-0.59 6.8c-0.49 5.67-0.56 11.77-0.2 18.19 0.02-0.02 0.05-0.04 0.07-0.05 0.21-0.16 0.43-0.32 0.65-0.49 0 0 0.01 0 0.01-0.01l0.48-0.36c0.4-0.3 0.81-0.6 1.22-0.9 0.34-0.25 0.68-0.5 1.03-0.75 0.08-0.06 0.17-0.12 0.26-0.19l0.53-0.38c0.18-0.13 0.36-0.26 0.54-0.38 0.13-0.1 0.27-0.19 0.4-0.29l0.99-0.69c0.21-0.15 0.42-0.3 0.64-0.44 0.21-0.15 0.43-0.29 0.64-0.44 0.2-0.14 0.39-0.27 0.59-0.4s0.39-0.27 0.59-0.4c0.08-0.06 0.17-0.12 0.26-0.17 0.38-0.26 0.77-0.52 1.16-0.77 0.43-0.29 0.86-0.57 1.3-0.85 0.04-0.03 0.07-0.05 0.11-0.07 0.27-0.17 0.54-0.35 0.81-0.52 0.14-0.09 0.29-0.18 0.43-0.28 0.44-0.29 0.89-0.57 1.34-0.85l1.35-0.84c0.01-0.01 0.02-0.01 0.03-0.02 0.04-0.02 0.07-0.05 0.11-0.07 0.35-0.21 0.69-0.43 1.04-0.64 0.52-0.32 1.05-0.64 1.58-0.96 0.41-0.24 0.81-0.49 1.22-0.73 0.1-0.06 0.2-0.12 0.3-0.17 0.42-0.25 0.85-0.5 1.28-0.74 0.34-0.2 0.67-0.39 1.01-0.58 0.26-0.15 0.53-0.3 0.79-0.45s0.52-0.29 0.78-0.44c0.24-0.13 0.48-0.27 0.71-0.4 0.29-0.16 0.57-0.32 0.86-0.47 0.3-0.16 0.59-0.33 0.89-0.49 0.34-0.18 0.67-0.36 1.01-0.54 0.16-0.09 0.32-0.17 0.48-0.26 0.02-0.01 0.04-0.02 0.05-0.03 0.33-0.17 0.65-0.35 0.98-0.52s0.65-0.34 0.98-0.51c0.37-0.19 0.73-0.38 1.1-0.56 0.41-0.21 0.82-0.41 1.22-0.62 0.2-0.1 0.41-0.2 0.61-0.31 0.79-0.39 1.59-0.78 2.38-1.16 0.24-0.11 0.47-0.23 0.71-0.34 1.08-0.52 2.16-1.02 3.24-1.51 0.22-0.1 0.44-0.2 0.66-0.3 0.37-0.17 0.75-0.34 1.12-0.5 0.05-0.02 0.09-0.04 0.14-0.06 0.38-0.17 0.76-0.33 1.14-0.5 0.25-0.11 0.51-0.22 0.76-0.33 0.24-0.11 0.49-0.21 0.74-0.31 0.02-0.01 0.05-0.02 0.08-0.03 0.24-0.1 0.47-0.2 0.71-0.3l0.72-0.3c0.24-0.1 0.48-0.2 0.72-0.29 0.03-0.01 0.06-0.02 0.08-0.04 0.48-0.2 0.96-0.39 1.44-0.58 0.22-0.09 0.44-0.17 0.65-0.26 0.49-0.19 0.97-0.38 1.46-0.56h0.01c0.03-0.01 0.05-0.02 0.08-0.03l0.24-0.09c0.05-0.02 0.1-0.04 0.14-0.05 0.12-0.05 0.24-0.09 0.36-0.14 0.28-0.1 0.55-0.21 0.83-0.31 0.32-0.12 0.65-0.24 0.97-0.36s0.65-0.23 0.97-0.35c12.38-4.42 24.04-6.97 34.07-7.53 1.63-0.09 3.21-0.13 4.75-0.12 0.38 0 0.77 0.01 1.14 0.02 0.22 0 0.43 0.01 0.65 0.02 0.15 0.01 0.29 0.01 0.44 0.02 0.12 0.01 0.25 0.01 0.37 0.02 0.14 0.01 0.28 0.01 0.41 0.02l0.42 0.03c0.19 0.01 0.38 0.02 0.56 0.04 0.14 0.01 0.29 0.02 0.43 0.03 0.2 0.02 0.41 0.04 0.61 0.05 0.07 0.01 0.14 0.01 0.2 0.02 0.14 0.02 0.28 0.03 0.41 0.04 0.2 0.02 0.39 0.04 0.59 0.07 0.13 0.02 0.26 0.03 0.39 0.05 0.53 0.07 1.06 0.14 1.58 0.23 0.11 0.02 0.23 0.04 0.34 0.05 0.19 0.03 0.38 0.07 0.57 0.1 0.13 0.02 0.26 0.05 0.4 0.08 0.43 0.08 0.85 0.17 1.26 0.26 0.14 0.03 0.28 0.06 0.41 0.1 0.11 0.03 0.23 0.05 0.34 0.08 0.18 0.05 0.36 0.09 0.54 0.14 0.11 0.03 0.22 0.06 0.33 0.09 0.13 0.04 0.27 0.07 0.4 0.11 0.29 0.08 0.59 0.17 0.87 0.26 0.15 0.05 0.3 0.1 0.45 0.15 0.07 0.02 0.14 0.05 0.22 0.07 0.13 0.04 0.25 0.08 0.38 0.13 0.5 0.18 0.98 0.36 1.46 0.56 0.12 0.05 0.24 0.1 0.35 0.15 0.23 0.1 0.47 0.2 0.69 0.31 0.11 0.05 0.23 0.11 0.34 0.16 0.23 0.11 0.45 0.22 0.67 0.33 0.08 0.04 0.15 0.08 0.23 0.12 0.16 0.08 0.32 0.17 0.47 0.26 0.09 0.05 0.18 0.1 0.26 0.15 0.11 0.06 0.21 0.12 0.31 0.18 0.2 0.12 0.39 0.24 0.58 0.36 0.27 0.17 0.53 0.35 0.78 0.53 0.08 0.06 0.16 0.11 0.23 0.17 0.06 0.04 0.12 0.08 0.18 0.13 0.2 0.15 0.38 0.29 0.57 0.44 0.11 0.09 0.21 0.17 0.32 0.26 0.42 0.35 0.81 0.72 1.19 1.1 0.09 0.1 0.19 0.19 0.28 0.29 0.11 0.12 0.22 0.23 0.32 0.35 0.07 0.07 0.13 0.15 0.19 0.22 0.19 0.22 0.37 0.44 0.55 0.66 0.08 0.1 0.15 0.2 0.22 0.29 0.17 0.23 0.34 0.46 0.5 0.7 0.05 0.08 0.11 0.16 0.16 0.24s0.1 0.15 0.14 0.23c0.04 0.07 0.09 0.14 0.13 0.21 0.06 0.1 0.12 0.19 0.17 0.29 1.59 2.76 2.36 5.89 2.36 9.31 0.01 0.1 0.01 0.26 0 0.42z"/>
</svg>
